<?xml version="1.0" encoding="UTF-8"?>
<svg id="Layer_2" data-name="Layer 2" xmlns="http://www.w3.org/2000/svg" viewBox="0 0 118.93 118.93">
  <defs>
    <style>
      .cls-1 {
        fill: #5c5470;
      }

      .cls-2 {
        fill: none;
        stroke: #352f44;
        stroke-linecap: round;
        stroke-linejoin: round;
        stroke-width: 11px;
      }
    </style>
  </defs>
  <g id="Layer_1-2" data-name="Layer 1">
    <g>
      <path class="cls-2" d="M42.62,36.6c-5.19,7.8-9.87,15.6-12.74,20.72l-7.2-7.48c-4.48-4.73-4.48-12.15,0-16.88,2.12-2.23,5.06-3.49,8.13-3.5h16.76c-1.67,2.29-3.34,4.69-4.96,7.14Z"/>
      <path class="cls-2" d="M82.33,76.3c-7.8,5.19-15.6,9.87-20.72,12.74l7.48,7.2c4.73,4.48,12.15,4.48,16.88,0,2.23-2.12,3.49-5.06,3.5-8.13v-16.76c-2.29,1.67-4.69,3.34-7.14,4.96Z"/>
      <path class="cls-1" d="M27.62,72.74c2.25-2.25,2.25-5.89,0-8.14-2.25-2.25-5.89-2.25-8.14,0l8.14,8.14ZM1.68,82.4c-2.25,2.25-2.25,5.89,0,8.14,2.25,2.25,5.89,2.25,8.14,0l-8.14-8.14ZM40.96,86.09c2.25-2.25,2.24-5.89,0-8.14-2.25-2.25-5.89-2.24-8.14,0l8.14,8.13ZM23.93,86.85c-2.25,2.25-2.24,5.89,0,8.14,2.25,2.25,5.89,2.24,8.14,0l-8.14-8.13ZM33.95,53.21c-2.25-2.24-5.89-2.24-8.14,0-2.24,2.25-2.24,5.89,0,8.14l8.13-8.15ZM45.78,73.14l4.07-4.06h0s-4.06,4.06-4.06,4.06ZM57.57,93.1c2.25,2.25,5.89,2.25,8.14,0,2.25-2.25,2.25-5.89,0-8.14l-8.15,8.13ZM42.8,26.2c-1.77,2.64-1.07,6.21,1.57,7.99,2.64,1.77,6.21,1.07,7.99-1.57l-9.55-6.42ZM61.53,13.06l-3.68-4.43c-.08.07-.16.14-.24.21l3.92,4.21ZM112.45,6.47l5.73-.57c-.27-2.73-2.43-4.88-5.16-5.16l-.57,5.73ZM105.87,57.41l4.21,3.92c.07-.08.15-.16.22-.25l-4.43-3.68ZM86.31,66.58c-2.64,1.77-3.34,5.35-1.57,7.99,1.77,2.64,5.35,3.34,7.99,1.57l-6.42-9.55ZM54.32,99.45c2.25-2.25,2.25-5.89,0-8.14-2.25-2.25-5.89-2.25-8.14,0l8.14,8.14ZM28.39,109.1c-2.25,2.25-2.25,5.89,0,8.14,2.25,2.25,5.89,2.25,8.14,0l-8.14-8.14ZM96.76,30.3c2.25-2.25,2.25-5.89,0-8.14-2.25-2.25-5.89-2.25-8.14,0l8.14,8.14ZM79.13,31.65c-2.25,2.25-2.25,5.89,0,8.14,2.25,2.25,5.89,2.25,8.14,0l-8.14-8.14ZM19.48,64.6L1.68,82.4l8.14,8.14,17.79-17.8-8.14-8.14ZM32.82,77.96l-8.89,8.89,8.14,8.13,8.89-8.89-8.14-8.13ZM25.82,61.36l15.9,15.86,8.13-8.15-15.9-15.86-8.13,8.15ZM41.71,77.21l15.86,15.9,8.15-8.13-15.86-15.9-8.15,8.13ZM52.36,32.62c3.76-5.6,8.16-10.75,13.1-15.35l-7.84-8.42c-5.58,5.2-10.55,11.02-14.8,17.35l9.55,6.42ZM65.21,17.48c1.57-1.31,4.28-2.57,8.17-3.59,3.8-.99,8.29-1.64,13.03-2,9.47-.73,19.35-.31,25.48.31l1.14-11.45c-6.65-.66-17.22-1.12-27.5-.33-5.14.4-10.36,1.12-15.05,2.34-4.6,1.2-9.17,3.01-12.62,5.87l7.36,8.85ZM106.73,7.04c.61,6.13,1.04,16,.31,25.48-.37,4.73-1.01,9.22-2,13.03-1.02,3.9-2.28,6.6-3.59,8.18l8.85,7.35c2.87-3.45,4.67-8.03,5.87-12.62,1.22-4.69,1.94-9.91,2.34-15.05.79-10.28.34-20.85-.33-27.5l-11.45,1.14ZM101.66,53.48c-4.6,4.94-9.75,9.33-15.35,13.1l6.42,9.55c6.33-4.25,12.15-9.22,17.35-14.8l-8.42-7.84ZM46.19,91.31l-17.8,17.79,8.14,8.14,17.8-17.79-8.14-8.14ZM88.63,22.16l-9.49,9.49,8.14,8.14,9.49-9.49-8.14-8.14Z"/>
    </g>
  </g>
</svg>