<?xml version="1.0" encoding="UTF-8"?>
<svg id="Layer_2" data-name="Layer 2" xmlns="http://www.w3.org/2000/svg" viewBox="0 0 159.2 93.74">
  <defs>
    <style>
      .cls-1 {
        fill: #352f44;
      }
    </style>
  </defs>
  <g id="Layer_1-2" data-name="Layer 1">
    <g>
      <path class="cls-1" d="M77.11,80.41c-.15,7.48-6.16,13.44-13.46,13.34-7.3-.1-13.14-6.22-13.1-13.71.05-7.48,5.98-13.53,13.27-13.53,3.56.04,6.96,1.52,9.45,4.13,2.49,2.61,3.87,6.12,3.83,9.77h0Z"/>
      <path class="cls-1" d="M140.35,80.41c-.15,7.48-6.16,13.44-13.46,13.34-7.3-.1-13.14-6.22-13.1-13.71.05-7.48,5.98-13.53,13.27-13.53,3.56.04,6.96,1.52,9.45,4.13,2.49,2.61,3.87,6.12,3.83,9.77h0Z"/>
      <path class="cls-1" d="M112.23,85.2c2.65,0,4.8-2.15,4.8-4.8s-2.15-4.8-4.8-4.8v9.59ZM77.11,75.61c-2.65,0-4.8,2.15-4.8,4.8s2.15,4.8,4.8,4.8v-9.59ZM107.46,80.41c0,2.65,2.15,4.8,4.8,4.8s4.8-2.15,4.8-4.8h-9.59ZM117.05,46.73c0-2.65-2.15-4.8-4.8-4.8s-4.8,2.15-4.8,4.8h9.59ZM112.25,75.61c-2.65,0-4.8,2.15-4.8,4.8s2.15,4.8,4.8,4.8v-9.59ZM113.82,85.2c2.65,0,4.8-2.15,4.8-4.8s-2.15-4.8-4.8-4.8v9.59ZM140.27,75.61c-2.65.06-4.75,2.25-4.69,4.9.06,2.65,2.25,4.75,4.9,4.69l-.21-9.59ZM154.41,65.44l4.79-.08c0-.25-.03-.49-.07-.74l-4.72.82ZM155.88,45.91c-.45-2.61-2.94-4.36-5.55-3.9s-4.36,2.94-3.9,5.55l9.45-1.64ZM112.23,12c-2.65,0-4.8,2.15-4.8,4.8s2.15,4.8,4.8,4.8v-9.59ZM134.49,16.8v4.8h.03s-.03-4.8-.03-4.8ZM144.65,21.19l-3.5,3.28h0l3.5-3.28ZM148.55,31.76l-4.79-.2c-.01.34,0,.69.07,1.03l4.72-.82ZM146.43,47.55c.45,2.61,2.94,4.36,5.55,3.9,2.61-.45,4.36-2.94,3.9-5.55l-9.45,1.64ZM117.02,16.8c0-2.65-2.15-4.8-4.8-4.8s-4.8,2.15-4.8,4.8h9.59ZM107.43,46.73c0,2.65,2.15,4.8,4.8,4.8s4.8-2.15,4.8-4.8h-9.59ZM107.43,16.8c0,2.65,2.15,4.8,4.8,4.8s4.8-2.15,4.8-4.8h-9.59ZM112.23,11.68l-4.8-.03v.03h4.8ZM105.59,4.8L105.62,0h-.03v4.8ZM45.84,4.8V0h-.02s.02,4.8.02,4.8ZM41.14,6.82l-3.45-3.33h0l3.45,3.33ZM39.21,11.67h4.8v-.02s-4.8.02-4.8.02ZM39.21,73.53l4.8.02v-.02h-4.8ZM41.14,78.37l-3.45,3.33h0l3.45-3.33ZM45.84,80.4l-.02,4.8h.02v-4.8ZM50.53,85.19c2.65,0,4.8-2.15,4.8-4.8s-2.15-4.8-4.8-4.8v9.59ZM112.24,41.93c-2.65,0-4.8,2.15-4.8,4.8s2.15,4.8,4.8,4.8v-9.59ZM151.16,51.52c2.65,0,4.8-2.15,4.8-4.8s-2.15-4.8-4.8-4.8v9.59ZM4.8,12.79c-2.65,0-4.8,2.15-4.8,4.8s2.15,4.8,4.8,4.8v-9.59ZM24.31,22.38c2.65,0,4.8-2.15,4.8-4.8s-2.15-4.8-4.8-4.8v9.59ZM11.03,31.97c-2.65,0-4.8,2.15-4.8,4.8s2.15,4.8,4.8,4.8v-9.59ZM23.5,41.56c2.65,0,4.8-2.15,4.8-4.8s-2.15-4.8-4.8-4.8v9.59ZM14.83,51.15c-2.65,0-4.8,2.15-4.8,4.8s2.15,4.8,4.8,4.8v-9.59ZM23.5,60.74c2.65,0,4.8-2.15,4.8-4.8s-2.15-4.8-4.8-4.8v9.59ZM112.23,75.61h-35.12v9.59h35.12v-9.59ZM117.05,80.41v-33.68h-9.59v33.68h9.59ZM112.25,85.2h1.56v-9.59h-1.56v9.59ZM140.48,85.2c10.65-.23,18.91-9.22,18.72-19.85l-9.59.17c.1,5.58-4.2,9.98-9.34,10.09l.21,9.59ZM159.13,64.62l-3.25-18.71-9.45,1.64,3.25,18.71,9.45-1.64ZM112.23,21.59h22.26v-9.59h-22.26v9.59ZM134.52,21.59c2.47-.02,4.88,1.01,6.63,2.88l6.99-6.57c-3.56-3.79-8.5-5.94-13.68-5.9l.06,9.59ZM141.15,24.47c1.76,1.88,2.72,4.44,2.6,7.09l9.58.41c.22-5.2-1.64-10.28-5.19-14.06l-6.99,6.57ZM143.82,32.59l2.61,14.97,9.45-1.64-2.61-14.97-9.45,1.64ZM107.43,16.8v29.93h9.59v-29.93h-9.59ZM117.02,16.8v-5.11h-9.59v5.11h9.59ZM117.02,11.71c.02-3.05-1.14-6-3.27-8.21l-6.91,6.65c.36.38.59.91.58,1.5l9.59.06ZM113.76,3.5C111.63,1.29,108.71.02,105.62,0l-.05,9.59c.46,0,.92.19,1.28.56l6.91-6.65ZM105.59,0h-59.75v9.59h59.75V0ZM45.82,0c-3.08.01-6,1.28-8.13,3.49l6.9,6.66c.36-.37.82-.56,1.28-.56L45.82,0ZM37.69,3.49c-2.13,2.2-3.29,5.15-3.28,8.2l9.59-.04c0-.58.22-1.12.59-1.49l-6.9-6.66ZM34.41,11.67v61.86h9.59V11.67h-9.59ZM34.41,73.5c-.01,3.05,1.15,6,3.28,8.2l6.9-6.66c-.36-.38-.59-.91-.59-1.49l-9.59-.04ZM37.69,81.7c2.13,2.21,5.05,3.48,8.13,3.49l.05-9.59c-.46,0-.92-.19-1.28-.56l-6.9,6.66ZM45.84,85.19h4.68v-9.59h-4.68v9.59ZM112.24,51.52h38.92v-9.59h-38.92v9.59ZM4.8,22.38h19.51v-9.59H4.8v9.59ZM11.03,41.56h12.47v-9.59h-12.47v9.59ZM14.83,60.74h8.66v-9.59h-8.66v9.59Z"/>
    </g>
  </g>
</svg>