<?xml version="1.0" encoding="UTF-8"?>
<svg id="Layer_2" data-name="Layer 2" xmlns="http://www.w3.org/2000/svg" xmlns:xlink="http://www.w3.org/1999/xlink" viewBox="0 0 177.24 105.23">
  <defs>
    <style>
      .cls-1 {
        fill: url(#linear-gradient-15);
      }

      .cls-2 {
        fill: url(#linear-gradient-13);
      }

      .cls-3 {
        clip-path: url(#clippath-6);
      }

      .cls-4 {
        clip-path: url(#clippath-7);
      }

      .cls-5 {
        clip-path: url(#clippath-4);
      }

      .cls-6 {
        fill: #ac2e79;
      }

      .cls-7 {
        fill: url(#linear-gradient-2);
      }

      .cls-8 {
        fill: url(#linear-gradient-10);
      }

      .cls-9 {
        fill: url(#linear-gradient-12);
      }

      .cls-10 {
        fill: #fff;
      }

      .cls-11 {
        fill: none;
      }

      .cls-12 {
        fill: url(#linear-gradient-4);
      }

      .cls-13 {
        fill: url(#linear-gradient-3);
      }

      .cls-14 {
        clip-path: url(#clippath-1);
      }

      .cls-15 {
        fill: url(#linear-gradient-5);
      }

      .cls-16 {
        fill: url(#linear-gradient-22);
      }

      .cls-17 {
        clip-path: url(#clippath-5);
      }

      .cls-18 {
        clip-path: url(#clippath-8);
      }

      .cls-19 {
        fill: #3f2c78;
      }

      .cls-20 {
        fill: url(#linear-gradient-8);
      }

      .cls-21 {
        clip-path: url(#clippath-3);
      }

      .cls-22 {
        fill: #e9a955;
      }

      .cls-23 {
        fill: url(#linear-gradient-14);
      }

      .cls-24 {
        fill: url(#linear-gradient-20);
      }

      .cls-25 {
        fill: #1aa2d4;
      }

      .cls-26 {
        fill: url(#linear-gradient-17);
      }

      .cls-27 {
        fill: url(#linear-gradient-7);
      }

      .cls-28 {
        fill: url(#linear-gradient-9);
      }

      .cls-29 {
        fill: url(#linear-gradient-11);
      }

      .cls-30 {
        fill: url(#linear-gradient-19);
      }

      .cls-31 {
        fill: url(#linear-gradient-6);
      }

      .cls-32 {
        fill: #0d69a9;
      }

      .cls-33 {
        fill: url(#linear-gradient-21);
      }

      .cls-34 {
        clip-path: url(#clippath-2);
      }

      .cls-35 {
        fill: url(#linear-gradient-16);
      }

      .cls-36 {
        fill: url(#linear-gradient);
      }

      .cls-37 {
        clip-path: url(#clippath);
      }

      .cls-38 {
        fill: url(#linear-gradient-18);
      }
    </style>
    <clipPath id="clippath">
      <path class="cls-11" d="M109.77,43.95c.07,3.86.19,7.78.2,11.64,0,3.64-.37,7.42.16,10.99.06.43-.09,1.07-.06,1.53.05.69.61,1.46.67,2.2l.53-.29c.5,1.25.61.24.98-.29,1.27-1.8,4.24-1.76,6.21-1.66.43.02,2.34.2,2.55.42.16.16,0,.47.41.36.08-.57-.25-.92-.2-1.51.03-.38.23-1.43.31-1.82.06-.28.47-.59.13-.86-.25-.19-.44,0-.69,0-1.13.02-1.95.17-3.01.29-.65.08-1.37.04-2.1,0-.66-.03-1.33-.06-1.94,0-.03-7.83.09-15.68-.1-23.49-.13,0-.22.07-.3.15-.1.09-.2.19-.38.14v-.39c-.09-.09-.8.39-.92.49-.28.22-.94,1.19-1.36.68-.34-.41-.22-1.47-1.02-1.55-.14.13-.11,2.56-.1,2.96"/>
    </clipPath>
    <linearGradient id="linear-gradient" x1="-4446.6" y1="4747.96" x2="-4446.55" y2="4747.96" gradientTransform="translate(-5880370.99 5507294.38) rotate(90) scale(1238.53 -1238.53)" gradientUnits="userSpaceOnUse">
      <stop offset="0" stop-color="#3d56a4"/>
      <stop offset=".02" stop-color="#3d56a4"/>
      <stop offset=".12" stop-color="#4569ad"/>
      <stop offset=".33" stop-color="#5a9bc4"/>
      <stop offset=".5" stop-color="#6fcadb"/>
      <stop offset=".56" stop-color="#63aecd"/>
      <stop offset=".64" stop-color="#558ebe"/>
      <stop offset=".72" stop-color="#4a75b2"/>
      <stop offset=".8" stop-color="#4263aa"/>
      <stop offset=".89" stop-color="#3e59a5"/>
      <stop offset="1" stop-color="#3d56a4"/>
    </linearGradient>
    <clipPath id="clippath-1">
      <path class="cls-11" d="M141.72,47.55l.39,16.54c-.11.79-.02,2.16,0,3.01v.1c.02.66-.04,1.18.15,1.84.03.11.13.55.29.49.05-.02.61-.71.65-.8.2-.41.08-.93.37-1.29.08-.05.4.08.76.22.49.18,1.07.36,1.29.09.15-.19,0-1.61,0-2,0-.43.09-.99-.1-1.36,0-.29,0-.58,0-.87.13-4.45.34-9.51.1-13.94-.04-.77-.29-1.67-.3-2.42,0-.43.42-.91-.02-1-1.2.47-2.44.79-3.57,1.41"/>
    </clipPath>
    <linearGradient id="linear-gradient-2" x1="-4447.33" y1="4747.6" x2="-4447.28" y2="4747.6" gradientTransform="translate(-5290736.87 4956271.1) rotate(90) scale(1114.43 -1114.43)" xlink:href="#linear-gradient"/>
    <clipPath id="clippath-2">
      <path class="cls-11" d="M160.57,49.38c.09.97,1,2.86,1.66,3.58.48.53,2.84,2.02,2.84,2.02,1.81,1.04,6.38,2.87,7.35,4.64,0,0,1.12,4.02-1.06,4.56,0,0-2.99,1.1-5.26.59-1.49-.34-2.38-1.51-3.64-2.23-.19.58,1.5,1.3,1.5,1.41,0,.32-.84.02-.99-.06-.06-.03-.83-.85-.86-.91-.11-.19-.07-.41-.09-.44l.34-.1c-.83-.6-1.45-1.66-1.88-2.58-.12-.26-.05-.58-.4-.37.23.87.13,1.78.2,2.67-.03,0-.06,0-.09,0-.03,0-.07,0-.1,0-.84.06-.46.87-.4,1.32.04.25-.03.5.03.75.03.12,1.19,1.87,1.34,2.06.72.91,3.04,2.46,4.13,2.86,1.82.68,5.37.77,7.14-.05,2.49-1.15,3.74-3.55,4.08-6.17,0,0,0,0,0,0,0,0,.04-1.02,0-1.26t0,0h0c-.08-.58-.17-1.02-.36-1.53-.06-.15-.1-.31-.13-.46-.02-.08-.06-.16-.09-.24-.06-.19-.13-.32-.19-.49-1.81-4.49-6.63-5.37-10.39-7.57-.05-.03-.65-.68-.72-.78-.6-.86-.67-2.37,0-3.2,1.23-1.55,4.2-1.93,5.85-.89.75.47.74,1.09,1.06,1.76.34.71.68.36.43-.28l.1-.1c.22.38.46.38.72.59.13.1.17.44.44.38.25-.3.29-.91.44-1.16.09-.15.28-.18.38-.3.44-.55.11-1.02.27-1.49.05-.16.39-.13.37-.59-.06-.99-2.17-2.06-3.01-2.34-.96-.32-2.01-.48-3.08-.48-4.07,0-8.33,2.31-7.89,6.88"/>
    </clipPath>
    <linearGradient id="linear-gradient-3" x1="-4442.48" y1="4742.57" x2="-4442.43" y2="4742.57" gradientTransform="translate(3377162.46 -3163240.19) rotate(-90) scale(712.06 -712.06)" xlink:href="#linear-gradient"/>
    <clipPath id="clippath-3">
      <path class="cls-11" d="M142.44,43.69c-1.07.44-1.01.59-.66,1.67.13.41.35.78.55,1.15l3.78-.8s6.66-.94,6.82,2.36c.15,3.29.64,7.25-6.33,7.24v2.52c0,.18,1.19,1.27,1.41,1.5.92,1,1.58,1.92,2.38,3.01,1.75,2.39,3.54,5.17,5.88,6.99.61.47,2.17,1.69,2.91,1.56.57-.1-.12-.7-.2-.97-.12-.42-.1-.75-.15-1.1-.03-.25-.13-.44-.19-.65-.49-1.79-2.4-3.88-3.49-5.39-.41-.57-3.12-4.16-3.11-4.47,0-.29,1.07-.46,1.36-.58,5.53-2.29,6.15-11.41.97-14.61-1.22-.76-1.98-.74-3.35-.77-.24,0-.48,0-.72,0-2.63,0-5.41.34-7.84,1.34"/>
    </clipPath>
    <linearGradient id="linear-gradient-4" x1="-4447.46" y1="4749.62" x2="-4447.41" y2="4749.62" gradientTransform="translate(-3075605.19 2880120.8) rotate(90) scale(647.58 -647.58)" xlink:href="#linear-gradient"/>
    <clipPath id="clippath-4">
      <path class="cls-11" d="M84.79,57.1c-.06-.03-.08-.16-.2-.22-.42-.21-1.46-.38-1.32-.88.03-.1,1.18-1.32,1.34-1.48.47-.44,1.15-.84,1.64-1.27.85-.76,1.61-1.63,2.48-2.37.19-.25.6.12.69.3.16.34-.15.51-.26.8-.41,1.03-.86,2.39-1.38,3.33-.21.39-.96,1.36-1.27,1.69-.33.34-.55.47-.78.47-.25,0-.52-.16-.94-.38M96.91,41.67c-6.96.59-9.46,6.62-13.65,11.02-1.83,1.92-4.4,3.67-6.97,4.29-5.8,1.41-12.93-2.04-15.56-7.43-.28-.58-.95-2.69-1.3-3-.06-.05-.22.02-.27-.09-.03-.07.02-.19,0-.22-.01-.24.1-.45-.19-.39,0-.1,0-.19,0-.29,0-.26.11-.56-.19-.49,0-.17.04-.69-.1-.78.01-.19-.06-.22-.11-.4l-.03-.13c-.73.12-1.27.79-1.87,1.19-1.16.77-2.46,1.22-3.65,1.88-1.36.75-4.18,2.89-5.6,2.96-.09,0-.15,0-.19-.03.03.06.06.11.09.17.01.03-.01.07,0,.1.02.03.04.07.05.11,0,.01.01.02.02.04,0,.02.02.03.02.05.01.03-.01.07,0,.1.18.39.29.83.58,1.16h0c.43,1.62.6,1.36,1.38,2.55.21.32.3.71.52,1.04,2.02,3.12,7.88,7.78,11.35,9.04,1.54.56,3.08,1.08,4.62,1.65,1.74.64,3.54,1.28,5.44,1.17.49-.03.2-.11.29-.19.01-.01.07,0,.14,0,.06,0,.12,0,.15,0,1,.22,1.92.25,2.97.2.79-.04,1.52-.32,2.38-.2.07,0,.15.03.23.06-.02-.02-.04-.03-.07-.05-.23-.16-.31-.4-.54-.58-.83-.64-1.94-1.23-2.67-1.89-.2-.19-.59-.81-.77-.87-.07-.03-.15,0-.21.02-.13.04-.23.08-.18-.26.97-.04,1.78.44,2.72.58.1-.5-.41-.33-.62-.48-.08-.06-.06-.24-.16-.34-.3-.29-.72-.33-.97-.64.97.17,1.9.59,2.91.48.03-.15-.02-.22-.09-.34-.26-.4-1.2-1.02-1.61-1.5-.07-.09-.51-.62-.44-.68.61-.13,1.06.35,1.53.56.55.24,1.12.43,1.67.66.17.07,1.23.85,1.37.38.11-.4-.41-.39-.57-.49-.16-.1-.43-.34-.59-.48-.1-.09-.79-.72-.68-.83l1.92.86c.84-.38,1.43.94,2.04,1.07.41.08.45-.21.61-.47.61,0,1.17.48,1.73.75.21.1.42.2.63.29-.23-.11-.46-.21-.68-.32-.54-.27-1.06-.72-1.65-.83.17-.19.39-.18.59-.33.2-.16.79-.79,1.01-1.02.43-.44,1.17-1.72,1.91-1.54.59.15,1.24,1.03,1.92.1.79-1.09,1.48-3.01,2.12-4.26.22-.44,1.69-2.87,1.65-3.08-.05-.23-.37-.1-.38-.49-.06-1.73,2.08-2.67,3.31-3.4-.96-.43-.48-1.34.29-.83-.03.41.1.59.52.58.69-.03,1.2-.92,1.62-.87,1.2.14,2.33.26,3.4.97.05.03.1.07.15.11.59,0,.88.65,1.46.68.07-.07-.41-1.54-.38-1.89.01-.2.22-.44.28-.69.19-.83-.06-.89.32-1.81.07-.16.04-.36.12-.5-.56-.32-1.17-.6-1.85-.85-1.08-.39-1.54-.62-2.51-.62-.22,0-.46.01-.74.04"/>
    </clipPath>
    <linearGradient id="linear-gradient-5" x1="-4449.78" y1="4742.84" x2="-4449.73" y2="4742.84" gradientTransform="translate(-3842095.93 -4095189) rotate(180) scale(863.46 -863.46)" gradientUnits="userSpaceOnUse">
      <stop offset="0" stop-color="#ac2e79"/>
      <stop offset=".22" stop-color="#ad3178"/>
      <stop offset=".38" stop-color="#b23a75"/>
      <stop offset=".54" stop-color="#ba4b70"/>
      <stop offset=".68" stop-color="#c56269"/>
      <stop offset=".81" stop-color="#d48060"/>
      <stop offset=".94" stop-color="#e6a555"/>
      <stop offset=".95" stop-color="#e8a855"/>
      <stop offset="1" stop-color="#e8a855"/>
    </linearGradient>
    <clipPath id="clippath-5">
      <path class="cls-11" d="M88.8,28.41c-.57-.33-1.08-.77-1.59-1.19-.36-.27-.76-.56-1.12-.84-.6-.39-1.52-1.04-1.43-1.4,0-.08,0-.16,0-.25.57.1,1.04.4,1.49.71.23.13.45.28.66.41.15.06.32.09.46.19.27.18,2.26,1.79,2.34,1.93.02.03.03.08.05.13.09.1.15.19.17.24.04.14.03.27.02.41-.05,0-.09.01-.14.01-.34,0-.63-.19-.92-.36M86.32,9.2s.03.02.05.04c.05.05-.03.59-.14.68-.19-.05-.25-.21-.23-.37l-.15-.4c-.21.42.11,1.33.04,1.69-.04.19-.43.65-.47.9-.02.12.16.23.17.37.04.33.06.85-.15,1.11-.15.18-.58.31-.63.52.07.1.18.17.22.27.1.08.18.17.08.28-.1.11-2.54-.44-2.96-.48-.25-.03-.63-.07-.88-.08-.04,0-.09.02-.13.04-.05.02-.1.05-.1.04-.02-.02,0-.13-.01-.24h-.07c-.02-.08-.09-.19-.18-.3-.4-.29-1.02-1.06-1.26-1.1-.15-.03-.29.24-.45.31-.65.28-1.69-.13-2.38-.14-.06-.1-.12-.2-.17-.3-.29-.31-.48-1.1-.65-1.63-.04-.06-.08-.12-.13-.18-.24.88-.38,1.87-1.46,2.03-.24.04-1.03.05-1.24-.01-.16-.05-.25-.17-.33-.32-.08-.05-.14-.11-.18-.17-.11-.16-.12-.37-.17-.53-.09-.1-.22-.15-.41-.13-.48.07-.29.59-.37.9-.38,1.49-3.36.9-3.46-.08-.02-.05-.04-.1-.05-.15-.03-.15.07-.14.14-.14.03,0,.04,0,.05,0,.01-.02.02-.03.03-.05-.11-.02-.19-.07-.26-.15-.02,0-.03,0-.04-.01-.03-.02-.12-.21-.21-.39-.11-.16-.25-.28-.54-.22-.03.18-.04.29-.02.36.13,0,.31-.03.37.24.32.33,0,1.08-.3,1.35-.77.69-1.6.22-2.4-.11-.07-.03-.08-.16-.15-.18-.62-.15-.34.17-.42.52-.13.55-.42,1.51-.77,1.95-.36.46-1.61,1.15-2.19,1.21-.22.02-.1-.03-.14-.14,0,0,0,0,0,0-.21.02-.11-.02-.14-.14-.12-.49-.28-.99-.36-1.48-.06-.36-.02-1.1-.1-1.42-.88.12-.14.7-.2,1-.03.17-.63.55-.66.89-.02.22.15.34.17.49.01.13-.08.27-.05.45.05.34.45.75.33,1.04l-2.24,1.65c-.02.22-.61.46-.63.61.06.03.13.01.25-.04,1.57-.62,2.87-1.74,4.44-2.35.19-.07.4-.09.56-.21l-.09.27s.06-.02.08-.03c.08.5-.09.34-.42.5-2.4,1.13-3.85,2.6-5.94,4.07-.65.46-1.38.74-1.99,1.26.02.13.03.25.05.38h0s0,0,0,0c.05.39.11.79.14,1.17.01.15.08.31.1.49.01.16,0,.32,0,.49.02.51.03,1.15,0,1.65-.02.25-.08.42-.1.58-.05.45-.11.92-.19,1.36-.04.19-.08.37-.12.56-.76,4.3-3.53,8.89-7.12,11.47-.75.61-1.54,1.18-2.37,1.68.05.04.09.1.13.18.03.01.06.03.07.06.17.32.27,1.41.36,1.85.04.16,0,.36.21.42,0,.03,0,.06,0,.1,0,.1,0,.2,0,.29.03.3.05.94.29,1.07.15.82.35,1.34.59,1.8.08.15.17.29.25.44.21.35.45.7.72,1.19.04.02.1.03.19.03,1.42-.07,4.25-2.21,5.6-2.96,1.19-.66,2.49-1.11,3.65-1.88.6-.4,1.14-1.07,1.87-1.19-.74-3.88-.4-6.95,1.3-10.5.2-.41.7-1.83,1.05-2,.07-.03.15-.03.24-.03.12,0,.24,0,.38-.08.17-.11.74-1.02.96-1.27,2.69-3.1,6.18-5.3,10.3-5.91,5.2-.76,9.26.85,13.17,3.71.82.57,1.62,1.19,2.41,1.86.6.51,1.04,1.05,1.58,1.55.14.12.27.23.41.33.03.02.05.05.06.08.07.06.15.12.23.18,0,0,0,.02,0,.04.21-.12.9-1.5,1.03-1.77.87-1.92,1.33-3.96,2.66-5.69l.1-.58s0-.04,0-.05c0,0,0,0,.01,0l.31-1.73c.24-.37,1.46.06.77-1.45-.08-.09-.16-.12-.22-.22-1.4-2.12-3.65-2.94-5.91-3.85-.12-.05-.32-.01-.41-.07-.04-.02-.06-.07-.07-.12-.03,0-.06-.02-.08-.03-.16-.11-.07-.55-.11-.76-.02-.11-.07-.21-.13-.31-.31-.32-.79-.55-1.1-.19-.31.37-.02,1.14-.24,1.61l.06.13,4.15,2.73c.07.08.15.15.23.23,0,0,.02.01.02.02.33.26.65.55.98.83.12.1.24.2.35.3.11.09.22.18.33.27v.06s.06.1.04.18c0,0,0,0,0,0l.02.15c-.46.07-.86-.25-1.21-.49-.01,0-.03,0-.05,0-.02,0-.04,0-.05,0-.02-.01-.03-.03-.05-.05l-.05-.05c-3.31-2.37-5.79-3.76-9.6-5.14-5.04-1.83-12.37-1.69-17.4.24-.6.23-1.11.73-1.75.73.11-.14.22-.25.34-.34-.13.05-.26.1-.38.14.18-.2.33-.36.58-.49.89-.46,2.78-1.06,3.79-1.36,4.49-1.32,10.45-1.05,14.95.19.75.21,1.4.66,2.01.8.1.02.24.02.38.02.22,0,.44,0,.56.09.04.03.05.09.06.16.03.04.04.09.04.14.05.04.16,0,.44-.23-.01-.01-.03-.02-.04-.04-.24-.05-.81-.07-.95-.42-.19-.13-.26-.33-.02-.75.4-.71,1.48-.12,1.3-1.31-.12-.79-.26-1.61-.19-2.42.04-.48.65-1.14.5-1.75-.02-.02-.04-.04-.07-.05h-.24s0,.11,0,.21"/>
    </clipPath>
    <linearGradient id="linear-gradient-6" x1="-4442.36" y1="4745.3" x2="-4442.31" y2="4745.3" gradientTransform="translate(4677024.26 4995947.36) scale(1052.81 -1052.81)" gradientUnits="userSpaceOnUse">
      <stop offset="0" stop-color="#e9a755"/>
      <stop offset=".02" stop-color="#e9a755"/>
      <stop offset=".1" stop-color="#eaaa4e"/>
      <stop offset=".22" stop-color="#efb43b"/>
      <stop offset=".35" stop-color="#f8c31d"/>
      <stop offset=".42" stop-color="#fdcd0c"/>
      <stop offset=".61" stop-color="#f3bc2b"/>
      <stop offset=".83" stop-color="#ebad49"/>
      <stop offset=".95" stop-color="#e8a855"/>
      <stop offset="1" stop-color="#e8a855"/>
    </linearGradient>
    <clipPath id="clippath-6">
      <path class="cls-11" d="M101.89,43.6c-.39.92-.13.99-.32,1.81-.06.26-.27.49-.28.69-.02.35.45,1.82.38,1.89-.57-.03-.87-.68-1.46-.68,0,0,0,0,0,0,.6.42,1.18,1.1,1.61,1.82.12.18.21.35.28.51.13.26.23.51.31.75.14.44.34,1.01.46,1.48.61,2.36.38,5.05-.66,7.3-.27.65-.63,1.23-1.05,1.75-.81,1.05-1.85,1.9-3.12,2.43-2.23.93-4.33,1.27-6.38,1.16-.2,0-.4-.01-.59-.02-1.52-.09-3.39-.64-5.07-1.29,0,0,0,0,0,0-.07-.03-.13-.05-.2-.08-.01,0-.03-.01-.04-.02-.06-.02-.13-.05-.19-.08,0,0-.02,0-.03-.01-.29-.12-.57-.24-.85-.36-.04-.02-.08-.04-.12-.05-.01,0-.02-.01-.04-.02-.04-.02-.08-.04-.13-.06-.21-.09-.42-.19-.63-.29-.56-.26-1.12-.74-1.73-.75-.16.27-.19.56-.61.47-.61-.13-1.19-1.45-2.04-1.07l-1.92-.86c-.11.1.58.74.68.83.16.14.43.37.59.48.16.1.69.09.57.49-.13.47-1.19-.3-1.37-.38-.55-.23-1.12-.42-1.67-.66-.47-.21-.92-.68-1.53-.56-.07.06.36.59.44.68.41.48,1.35,1.1,1.61,1.5.08.12.12.19.09.34-1.01.11-1.94-.32-2.91-.48.25.3.67.35.97.64.1.1.08.28.16.34.2.14.72-.02.62.48-.94-.14-1.74-.63-2.72-.58-.05.35.04.3.18.26.07-.02.14-.04.21-.02.18.07.57.68.77.87.73.67,1.84,1.25,2.67,1.89.23.18.31.42.54.58.02.02.04.03.07.05.6.21,1.55.85,2.07,1.09,1.63.76,3.37,1.38,5.16,1.83,2.75.63,5.69.93,8.24.8,2.03-.15,4-.58,5.81-1.36,4.68-2.12,7.98-6.41,8.65-11.69.66-5.18-.25-10.14-4.15-13.5-.39-.32-.8-.6-1.24-.85-.08.14-.05.34-.12.5"/>
    </clipPath>
    <linearGradient id="linear-gradient-7" x1="-4452.26" y1="4745.45" x2="-4452.21" y2="4745.45" gradientTransform="translate(-2542260.01 -2709737.93) rotate(180) scale(571.03 -571.03)" gradientUnits="userSpaceOnUse">
      <stop offset="0" stop-color="#ac2e79"/>
      <stop offset=".35" stop-color="#ac2e79"/>
      <stop offset=".4" stop-color="#8e397f"/>
      <stop offset=".46" stop-color="#744384"/>
      <stop offset=".52" stop-color="#614a88"/>
      <stop offset=".58" stop-color="#554e8b"/>
      <stop offset=".65" stop-color="#52508c"/>
      <stop offset="1" stop-color="#52508c"/>
    </linearGradient>
    <clipPath id="clippath-7">
      <path class="cls-11" d="M18.68,37.83V15.6c-.15-1.13,1.61-1.01,2.38-.93,2.08.22,4.12.16,6.21.3,1.95.13,4.56.6,6.36,1.36,3.01,1.26,4.91,4.12,5.73,7.18-.14.43.08.97.1,1.4.06,1.02.08,2.54,0,3.55-.28,3.29-2.48,6.61-5.37,8.17-3.12,1.68-8.77,1.9-12.3,1.73-.01,0-.11-.09-.24-.1-.76-.04-1.48.01-2.24-.19l.14.29s-.07,0-.11,0c-.34,0-.62-.17-.66-.54M6.5,12.17c3.27-2.38,8.21-4.31,11.91-6.05.2-.09.44-.17.55-.37,1.14-.16,3.23-1.17,4.37-1.55.17.21.04.22-.14.3-3.43,1.55-6.8,3.28-10.12,5.03-1.91,1-4.06,2-5.89,3.14-1.3.81-2.47,2.16-3.23,3.48.01-1.62,1.29-3.05,2.54-3.96M33.1.41c-1.32.16-2.53.7-3.76,1.09-4.04,1.29-7.82,2.72-11.74,4.28-.15.06-.31.09-.38.25-1.56.48-3.42,1.4-4.89,2.15-2.16,1.09-6.58,3.24-7.98,5.03-.91,1.18-1.32,2.35-1.41,3.83-.14,2.47.15,5.28.2,7.77.04,1.91.14,3.79.2,5.68.03,1-.1,2.23-.1,3.3.16.1.1.37.1.53,0,.66,0,1.33,0,1.99,0,5.52.14,10.99.19,16.5.07,7.85-.13,15.76,0,23.59l-.77,8.77c.03.11.2.22.28.16.06-.04.46-1.12.51-1.28.34-1.02.63-2.7.65-3.77,0-.13-.05-.32.1-.39.19-1.46.53-2.6.68-4.03.64-6.11.58-12.59.68-18.74.14-9.07.23-18.24.1-27.32.16-.1.1-.37.1-.53.01-1.27.07-2.53.12-3.79v-.08c.05-.02.11-.04.17-.02v.1c-.17,16.29.05,32.59,0,48.88-.18.24-.07.58-.14.88-.06.27-.33.47-.25.8.02.07.19.06.2.12.02.16-.16.42-.1.62.44.09.45-.41.58-.68.4-.06.35-.27.49-.49.01-.02-.01-.07,0-.1l.05-.05.05-.05c.11-.15.16-.29.39-.29,0,.01.1.08.08.21-.02.14-.42,1.15.16.56.24-.24.07-.97.34-1.46.14-.25.37-.41.58-.58.35-.29.72-.61,1.06-.9.2-.17.72-.35.78-.65.01,0,.03,0,.05,0,.02,0,.04,0,.05,0,.28-.13.63-.16.68-.58.01,0,.03,0,.05,0,.02,0,.04,0,.05,0,1.3-.72,2.52-1.62,3.82-2.35,1.2-.67,3.19-1.41,4.05-2.31.03-.03.07-.06.1-.1,0,0,.02,0,.05,0,.06,0,.14.02.15-.06,0-1.76,0-3.52,0-5.28,0-.13,0-.26,0-.39,0-2.12.03-4.24,0-6.36,0-.16.06-.43-.1-.53,0-1.39,0-2.78,0-4.17-.15-.03-.15-.35,0-.39,0-1,0-2.01,0-3.01,1.36-.17,2.78-.13,4.21-.09,1.48.04,2.95.09,4.34-.11.04,0,.36-.26.49,0,.27-.03.5-.07.78-.1l.05-.1.05.1s.1,0,.14,0c.05,0,.1,0,.15,0l.05-.1.05.1c.25-.02.48-.08.78-.1.04-.1.13-.1.23-.1.02,0,.04,0,.07,0,1.71-.07,3.4-.31,5.07-.71,2.07-.49,4.08-1.27,6.13-1.81.35.85,1.84,1.19,1.9,2.19.01.2-.11.38-.07.55.13.66.87,1.59.95,2.37.04.41-.28.63-.18.94.11.34.8-.02.85-.2.03-.09-.18-.96-.23-1.1-.11-.29-.31-.43-.41-.66-.08-.17-.58-1.55-.59-1.64-.02-.12.19-.24.18-.46,0-.17-.61-1.41-.74-1.6-.15-.23-.6-.5-.63-.74-.05-.46,1.05-.74,1.37-.92,5.1-2.98,8.75-8.08,9.91-13.88.09-.44.14-.91.19-1.36.02-.17.08-.33.1-.58.03-.5.02-1.14,0-1.65,0-.16.01-.33,0-.49-.02-.18-.08-.34-.1-.49-.05-.5-.13-1.05-.19-1.55-.05-.39-.38-2.9-.49-3-.07-.06-.26-.01-.42.03-.13.04-.24.07-.26.06-.1-.34.37-.45.38-.72,0-.17-.36-.96-.46-1.19-2.65-6.06-8.39-9.65-14.59-11.2-1.47-.37-3.33-.92-4.82-1.06-1-.09-1.92-.1-2.81.37-3.47,1.83-6.98,3.7-10.47,5.46-.82.41-1.79.63-2.62,1.07-.53.28-1.04.73-1.53.99-.77.41-1.76.66-2.54,1.05-1.32.67-2.66,1.71-3.95,2.46l-.59.04c-.08-.07.62-.83-.16-.84-.47,0-.55.26-.79.33-.77.23-1.56-.08-1.68.95-.27,2.41-.05,5.12-.28,7.57v.29s-.11.04-.17.02v-.25c.03-.56.05-1.13.06-1.69.04-1.89-.22-4.34,0-6.12.09-.79,1.92-2.72,2.58-3.25,4.37-3.48,8.7-5.35,13.74-7.67.55-.25.94-.48,1.55-.68.01,0,.03,0,.05,0,.02,0,.03,0,.05,0,.15-.26.59-.31.87-.39.02,0,.03,0,.05,0,.02,0,.03,0,.05,0,1.87-.53,4.4-1.66,6.18-2.51,1.18-.56,2.26-1.27,3.33-2.01.03-.23-.06-.13-.2-.1-.39.07-.73.23-1.16.15-.05-.03.23-.29,0-.29-.01,0-.03,0-.05,0"/>
    </clipPath>
    <linearGradient id="linear-gradient-8" x1="-4445.37" y1="4746.62" x2="-4445.33" y2="4746.62" gradientTransform="translate(-14121826.98 13225581.65) rotate(90) scale(2975.14 -2975.14)" xlink:href="#linear-gradient"/>
    <clipPath id="clippath-8">
      <path class="cls-11" d="M125.06,54.8c0-5.1,2.55-9.23,5.7-9.23,3.15,0,5.7,4.13,5.7,9.23,0,5.1-2.55,9.23-5.7,9.23s-5.7-4.13-5.7-9.23M123.72,46.53c-3.22,5.05-3.13,12.58.15,17.6,1.96,3,4.03,3.84,7.61,3.56,1.12-.09,2.67-.73,3.47-1.66.27-.31.55-.6.85-.88,3.14-2.96,4.34-7.88,4.09-12.07-.18-2.89-1.46-7.05-3.69-8.98-.28-.25-.45-.31-.68-.49-.16-.12-.28-.26-.49-.39-1.25-.82-2.58-1.18-3.87-1.18-2.93,0-5.75,1.85-7.43,4.49"/>
    </clipPath>
    <linearGradient id="linear-gradient-9" x1="-4446.45" y1="4747.19" x2="-4446.4" y2="4747.19" gradientTransform="translate(-7356353.05 6890468.39) rotate(90) scale(1549.65 -1549.65)" xlink:href="#linear-gradient"/>
    <linearGradient id="linear-gradient-10" x1="192.3" y1="1197.36" x2="200.18" y2="1197.36" gradientTransform="translate(-83.13 -1119.09)" xlink:href="#linear-gradient"/>
    <linearGradient id="linear-gradient-11" x1="200.03" y1="1198.9" x2="204.69" y2="1198.9" gradientTransform="translate(-83.13 -1119.09)" xlink:href="#linear-gradient"/>
    <linearGradient id="linear-gradient-12" x1="204.57" y1="1197.75" x2="207.96" y2="1197.75" gradientTransform="translate(-83.13 -1119.09)" xlink:href="#linear-gradient"/>
    <linearGradient id="linear-gradient-13" x1="207.18" y1="1198.9" x2="213.5" y2="1198.9" gradientTransform="translate(-83.13 -1119.09)" xlink:href="#linear-gradient"/>
    <linearGradient id="linear-gradient-14" x1="212.97" y1="1198.17" x2="216.36" y2="1198.17" gradientTransform="translate(-83.13 -1119.09)" xlink:href="#linear-gradient"/>
    <linearGradient id="linear-gradient-15" x1="215.77" y1="1197.75" x2="219.16" y2="1197.75" gradientTransform="translate(-83.13 -1119.09)" xlink:href="#linear-gradient"/>
    <linearGradient id="linear-gradient-16" x1="218.39" y1="1198.9" x2="224.71" y2="1198.9" gradientTransform="translate(-83.13 -1119.09)" xlink:href="#linear-gradient"/>
    <linearGradient id="linear-gradient-17" x1="223.7" y1="1200.4" x2="229.55" y2="1200.4" gradientTransform="translate(-83.13 -1119.09)" xlink:href="#linear-gradient"/>
    <linearGradient id="linear-gradient-18" x1="233.76" y1="1197.36" x2="241.65" y2="1197.36" gradientTransform="translate(-83.13 -1119.09)" xlink:href="#linear-gradient"/>
    <linearGradient id="linear-gradient-19" x1="241.49" y1="1198.9" x2="246.15" y2="1198.9" gradientTransform="translate(-83.13 -1119.09)" xlink:href="#linear-gradient"/>
    <linearGradient id="linear-gradient-20" x1="246" y1="1198.9" x2="251.24" y2="1198.9" gradientTransform="translate(-83.13 -1119.09)" xlink:href="#linear-gradient"/>
    <linearGradient id="linear-gradient-21" x1="250.58" y1="1198.9" x2="254.93" y2="1198.9" gradientTransform="translate(-83.13 -1119.09)" xlink:href="#linear-gradient"/>
    <linearGradient id="linear-gradient-22" x1="255.08" y1="1198.9" x2="259.43" y2="1198.9" gradientTransform="translate(-83.13 -1119.09)" xlink:href="#linear-gradient"/>
  </defs>
  <g id="Layer_1-2" data-name="Layer 1">
    <g>
      <g>
        <g>
          <path class="cls-6" d="M83.84.7l-.1-.05.1-.05s0,.06,0,.1"/>
          <path class="cls-22" d="M92.05,20.84s.03.04.05.05l-.05-.05Z"/>
          <path class="cls-19" d="M47.32,50.02l.05.11s-.04-.08-.05-.11"/>
        </g>
        <g class="cls-37">
          <rect class="cls-36" x="100.63" y="41.12" width="30.36" height="30.02" transform="translate(-5.19 99.95) rotate(-45.77)"/>
        </g>
        <g>
          <path class="cls-32" d="M59.37,63.9c-.05.21.12.23.29.29,2.53.99,4.97,2.06,7.67,2.62l.29.1c.12.02.27-.02.39,0l.29.1c.93.16,2.15.37,3.07.48.88.11,1.78.11,2.66.1.08.39-.3.42-.49.63-.32.34-1.15,1.32-1.6,1.41-.75.14-2.22.12-3.01.11-1.08-.02-3.07-.44-4.03-.05-.34.14-1.19.79-1.31,1.12-.19.52.56,2.37-.66,2.01-.71-.21-.56-.95-.56-1.53l-.58.19c-.23-.61.11-1.51-.09-2-.14-.35-1.11-1.36-1.52-1.12-.48.28-1.45,1.54-1.99,2-.8.69-1.18,1.03-2.29.93-.86-.08-1.23-.99-.52-1.6.38-.33,1.13-.73,1.64-1.12l.19-.1c.1-.08.27-.1.39-.24.15-.17.13-.32.19-.44,0,0,.15.05.19-.07.1-.31.14-.89-.29-.9-.01-.03.02-.08,0-.1,0-.19-.09-.3-.29-.29-.11-.18-.14-.35-.3-.53-.51-.55-1.15-.77-1.81-.37-.3.18-.33.46-.61.51,0-.03,0-.07,0-.1.04-.4-.03-.85,0-1.26.03.02.14-.04.2.06.13.19-.16.55.14.72.43-.3.5-.72-.05-.93-.14-.05-.34-.02-.39-.04-.36-.16-.65-.51-.94-.67-.25-.14-1.24-.45-1.28-.66-.03-.16.16-.35.03-.62-.13-.27-1.45-.8-1.77-.85-.31-.05-.66.03-.93-.04-.36-.1-1.4-.95-1.94-1.16-.77-.31-1.71-.46-2.52-.78-1.1-.45-2.53-1.05-2.11-2.5.2.03.22,0,.19-.19.01-.01-.02-.17.15-.28.19-.12.96-.14.77-.5-.13-.24-1.86-1.36-2.22-1.57-.25-.15-1.06-.29-.94-.71.25-.34.52.02.76.11.55.21,2.28.84,2.64,1.2.02.02-.03.17,0,.19.16.12.8.02.97,0,.06,0,.14.01.19,0,.16-.03.18-.06.29-.1.34-.12.87-.17.63-.68-.08-.18-1.04-1-1.26-1.17-.26-.2-1.41-.68-.29-.78.66-.06,1.85.33,1.68-.7-.06-.39-.78-.8-.23-.95.14.03.71.93.83,1.11,1.17,1.9,1.96,3.7,3.54,5.39,2.51,2.69,5.25,4.61,8.5,6.31M47.03,59.14c.27-.23-1.13-.61-1.23-.66-.36-.16-2.04-1.2-2.26-.99.06.74.5,1.01,1.13,1.25.73.28,1.59.44,2.37.4M64.42,67.1c-2.05-.38-3.11-1.22-4.85-2.09-.8-.4-.86-.02-1.66-.04,0,.11-.02.19.05.29.29.43,2.39,1.4,2.96,1.65-.05.25.12.2.27.26.8.37,1.24.64,2.16.71.32.02.74.02,1.07,0,.33-.02.77-.07,1.09-.12.42-.07,1.75-.31.71-.46-.6-.09-1.2-.08-1.8-.19M57.33,69.53l-.67.5.09.47c.19.14.7-.74.58-.97M63.35,72.64c.08-.06.28-1.16-.19-1.07-.11.16-.17,1.34.19,1.07"/>
          <path class="cls-19" d="M168.58,36.62c-.31-.05-.32-.47-.34-.72-.23-3,.19-6.3,0-9.33-.02-.37-.17-.73-.1-1.11-.92-.04-1.85.05-2.77,0-.35-.02-.82-.23-1.12-.16-.29.07-.61,1.28-1.12,1.33-.2.02-1.64-.86-2.02-.99-2.03-.75-4.33.02-5.55,1.77-2.45,3.53,1.06,7.64,5.12,6.96.59-.1,1.67-1,2.11-.8.29.13.37.55.52.7.2.21.81.54.84.85.04.51-1.23.83-1.55,1.17-4.06,1.52-8.47-.14-10.05-4.23-.39-1.02-.45-1.75-.33-2.85.48-4.43,5.04-7.36,9.31-6.03.72.22,1.45.82,2.09,1.02.15.05.15,0,.13-.13-.03-.15-.3-.84-.03-.84h12.77s-.09.34-.09.34l-1.72,1.77c-.39-.03-.76.1-1.14.12-.69.04-1.72-.12-2.33,0-.11.02-.34.17-.34.24v10.68s-.13.15-.1.24c-.66-.08-1.55.11-2.19,0"/>
          <path class="cls-19" d="M126.24,23.22c.3.06,1.91.88,2.19,1.12,1.95,1.62,1.77,5.6-.52,6.77-.2.1-.84.18-.85.42l2.92,5.1h-2.77c-.68-.92-1.24-1.93-1.87-2.89-.2-.3-.52-.59-.69-.86-.14-.22-.31-1.1-.74-1.1h-1.7s0,4.61,0,4.61c0,.03-.11.23-.16.25-.69.16-1.83-.15-2.56-.1-.02-1.34.02-2.69,0-4.03-.03-2.19-.07-4.3,0-6.5.03-.92-.1-1.87.09-2.77h6.65ZM122.11,29.63l3.83-.1c1.27-.47,1.66-2.45.78-3.4-.09-.1-.92-.68-.98-.68h-3.64s0,4.17,0,4.17Z"/>
          <path class="cls-19" d="M151.34,25.36c-.39-.07-.75.08-1.11.1-1.69.1-3.73-.2-5.35,0-.1.01-.33.04-.33.15v2.67s6.36,0,6.36,0c.01,0,.15.14.15.15v1.84s-.13.15-.1.24h-6.26s-.15.14-.15.15v3.64s6.56,0,6.56,0c.39,0,.27,1.98.15,2.33h-9.08c-.11,0-.14-.24-.15-.33-.13-1.15-.07-3.04-.1-4.27-.05-2.96,0-5.94.1-8.89h9.18s.15.14.15.15v2.09Z"/>
          <path class="cls-19" d="M117.74,25.45h-6.8s0,2.82,0,2.82h6.46s.15.14.15.15v2.09h-6.51s0,3.88,0,3.88c1.92.03,4.07-.28,5.98-.1.14.01.63.09.63.25v2.09s-9.22-.1-9.22-.1c-.14-1.65-.12-3.33-.11-5,0-.25.1-.49.11-.77,0-2.24-.25-4.84-.11-7,0-.12.03-.5.17-.53l9.02-.09c.56.1.33,1.87.24,2.33"/>
          <path class="cls-19" d="M99.87,32.25v4.03s-.13.15-.1.24h-2.53v-13.3h6.46c.07,0,1.05.46,1.21.54,4.28,1.98,2.39,8.49-1.99,8.49h-3.06ZM99.87,30.02h2.87s.81-.23.9-.27c.94-.45,1.43-2.24.94-3.12-.11-.2-1.27-1.17-1.45-1.17h-3.16s-.1,4.56-.1,4.56Z"/>
          <path class="cls-19" d="M140.66,25.45h-6.46s-.15.14-.15.15v2.67s5.98-.1,5.98-.1c.1-.02.33.07.33.15v2.18h-6.17s-.15.14-.15.15v5.97h-1.7s-.73-.1-.76-.11c-.11-.04-.15-.12-.16-.23.09-2.98-.14-5.96-.1-8.94,0-.23.1-.44.11-.67.02-.93-.15-2.49,0-3.3.01-.08.08-.24.15-.24h8.94s.15.14.15.15v2.18Z"/>
        </g>
        <g class="cls-14">
          <rect class="cls-7" x="136.1" y="46.7" width="15.39" height="22.33" transform="translate(-9.57 80.35) rotate(-30.26)"/>
        </g>
        <g class="cls-34">
          <rect class="cls-13" x="156.03" y="40.76" width="23.63" height="30.89" transform="translate(-8.79 44.75) rotate(-14.8)"/>
        </g>
        <g>
          <path class="cls-32" d="M46.29,72.57c.92-1.2,3.11-2.55,4.68-2.37,1.31.15-.03,1.78-.32,2.3-.66,1.17-1.84,3.52-3.47,3.44-.46-.02-1.25-.7-1.41-1.12-.26-.66.11-1.72.53-2.26M49.95,71.18s-.41-.17-.46-.18c-.83-.15-1.81.87-2.24,1.5-.15.22-.9,1.3-.35,1.3.19,0,.73-.97.92-1.21.3-.38.85-1.09,1.33-1.19.12-.02,1.05.05.8-.21"/>
          <path class="cls-22" d="M60.86,9.11c.06.12.18.41.23.5.24.41.73.68.61,1.29-.23.24-1.28-1.24-1.5-1.46-1.24-1.21-2.69-1.98-3.56-3.62-.41-.78-.62-2.18-.08-2.93.77-1.07,2.07-.66,2.66.35.4.68.94,3.05,1.19,3.95.15.52.25,1.5.46,1.92M58.59,5.26v-1.5s-.15-.54-.19-.59c-.3-.43-1.62-.45-1.29.42.11.28,1.11,2.03,1.48,1.68"/>
          <path class="cls-32" d="M82.13,75.63s.15-.01.17.16c.16,1.29-1.23,2.11-2.19,1.03-.68-.76-1.53-3.12-1.51-4.13.02-1.1.66-.75,1.26-.29,1.1.84,1.94,1.92,2.27,3.23M80.44,75.84c.15.31.22,1.12.73,1.07.59-.05-.11-1.19-.26-1.5-.07-.14-.05-.3-.28-.25-.2-.56-.54-1.29-1.17-1.46.09.81.63,1.42.97,2.14"/>
        </g>
        <g class="cls-21">
          <rect class="cls-12" x="133.97" y="40" width="33.17" height="33.36" transform="translate(3.19 121.22) rotate(-44.28)"/>
        </g>
        <g>
          <path class="cls-32" d="M69.66,77.3c-.42.1-1.07-.24-1.32-.58-.32-.44-.25-1.41-.06-1.92.07-.2.82-1.63.92-1.75.65-.73,1.14.54,1.35,1.07.3.77.5,1.66-.05,2.37-.06.07-.23.08-.26.12,0-.34.05-.86-.29-1.07-.01.48.12.88,0,1.36-.04.04-.08.2-.19.29l-.1.1ZM69.56,74.19c-.21-.19-.72.95-.58,1.17,1.25.13.89-.34.58-1.17"/>
          <path class="cls-22" d="M69.13,8.27c-.14-.04-.85-.72-.97-.88-.2-.29-.53-1.06-.54-1.4-.04-.64.41-1.57,1.12-1.6,1.4-.08,2.2,2.77,2.09,3.89-.47-.08-1.28.11-1.7,0M69.44,6.78c.06-.04.31-.42.32-.51.15-.87-1.34-1.67-1.53-.85-.17.73.32,1.98,1.21,1.36"/>
          <path class="cls-22" d="M55.16,13.45c.34.41.42,1.73.14,2.15-.08.12-.65.08-.79,0-.2-.09-.47-.86-.64-1.11-.26-.39-.59-.59-.86-.99-.23-.35-.34-.78-.54-1.11-.17-.27-.6-.38-.49-.82.2,0,.41-.02.61.02.52.1,2.2,1.41,2.57,1.85"/>
          <path class="cls-32" d="M34.09,49.74c.53-.14,1.77.42,2.32.56,2.32.59,3.74.92,5.63,2.53.16.13,1.04.99,1.02,1.12-.06.26-.37.07-.48,0-1.04-.69-1.5-1.65-2.77-2.18-1.34-.56-2.43-1.02-3.88-1.06-.4-.01-1.64.07-1.9-.05-.3-.15-.27-.82.07-.91M34.41,50.31c.16-.16-.25-.62-.39-.24-.12.33.35.28.39.24"/>
          <path class="cls-32" d="M53.73,67.3c.34.16,1.6.06,1.56.62,0,.05-.15.04-.19.13-.04.1-.01.23-.1.36-.54.83-2.15.52-1.93-.66.04-.22.18-.31.27-.46l.1-.1s.07-.06.1-.1c.06.05.13.17.19.19M53.64,68.17c.13.03.48-.01.48-.15,0-.2-.56-.21-.48.15"/>
          <path class="cls-22" d="M74.88,3.44c.19.23.02.34.03.49,0,.07.18.01.2.2.02.18.02,1.02-.02,1.16-.09.29-.85.23-1.06-.08-.42-.64.06-2.73.85-1.77M74.47,3.9c-.3.21-.53,1.08-.09,1.16.42.07.44-.96.09-1.16"/>
          <path class="cls-32" d="M62.38,73.61c.07.06.23,1.61.19,1.79-.14.75-1.12.57-.96-.67.03-.23.47-1.41.77-1.13M62.18,74.48c-.37-.08-.13.56-.19.78.37.08.13-.56.19-.78"/>
          <path class="cls-32" d="M71.47,80.03c.56-.11.93,1.1.19,1.54-.87.52-.81-1.42-.19-1.54"/>
          <path class="cls-22" d="M65.78,8.85c-.18-.03-1.08-.23-1.12-.28-.13-.18-.16-1.35.39-1.08.72.35.66.6.73,1.36"/>
          <path class="cls-32" d="M48.49,63.02c-.15.13-1.27-.41-1.25-.71.06-.62,1.22-.63,1.33.2,0,.08-.06.49-.08.51"/>
          <path class="cls-6" d="M84.14,1.13c-.02-.19-.23-.18-.3-.34,0-.03,0-.07,0-.1l-.1-.05.1-.05c-.13-.57-.77-.67-1.28-.56-1.23.28-1.92,2.41-2.02,3.52-.04.42-.05,3.35.1,3.44.3.19.28-.19.34-.28.24-.3,1.06-1.44,1.21-1.76.29.04.34,0,.29-.29.35-.18.39-.48.49-.78.69-.55,1.28-1.9,1.17-2.77M81.75,3.21c-.25.27-.4.29-.44-.14-.02-.24.39-1.54.52-1.82.11-.23.38-.42.63-.45,1.1-.11-.44,2.11-.71,2.4"/>
          <path class="cls-32" d="M70.15,70.89c.04.4,0,.71-.2,1.06-1.15-.21-1.02-1.42.2-1.06"/>
          <path class="cls-32" d="M76.44,69.94c.4-.05,1.07.11.71.62-.54.75-1.9-.46-.71-.62"/>
          <path class="cls-22" d="M66.36,10.02c-.1.25.33,1.13.19,1.26-.02.02-.24.03-.3-.06-.12-.17-.52-1.44.11-1.21"/>
          <path class="cls-25" d="M54.61,64.48c.05.02.25,0,.39.04.55.2.48.62.05.93-.29-.16,0-.52-.14-.72-.07-.1-.18-.04-.2-.06-.09-.06-.11-.08-.1-.19"/>
          <path class="cls-32" d="M50.53,65.26c-.11-1.24,1.08-.38.59-.04-.14.09-.42.03-.59.04"/>
          <path class="cls-25" d="M54.7,66.03c-.09.47-.83.76-.97,1.26-.06-.03-.13-.14-.19-.19.01-.02-.02-.11.03-.17.27-.3.84-.67,1.14-1,0,.03,0,.07,0,.1"/>
          <path class="cls-25" d="M70.25,76.62s0,.14-.1.24c-.05.05-.17.03-.19.05.12-.48-.01-.88,0-1.36.34.21.29.72.29,1.07"/>
          <path class="cls-19" d="M48.49,67.59s-.54.02-.58-.15c-.04-.15.13-.41.25-.43.22-.05.4.51.34.58"/>
          <path class="cls-25" d="M3.33,34.34c0,.66,0,1.33,0,1.99-.16-.1-.1-.37-.1-.53,0-.66,0-1.33,0-1.99.16.1.1.37.1.53"/>
          <path class="cls-32" d="M48.59,64.67h-.49c-.08-.67.57-.66.49,0"/>
          <path class="cls-25" d="M57.72,66.81c.43.01.39.6.29.9-.04.12-.19.06-.19.07,0-.31.03-.68-.1-.97"/>
          <path class="cls-25" d="M45.48,55.45c-.17.02-.81.11-.97,0-.03-.02.02-.17,0-.19l.97.19Z"/>
          <path class="cls-22" d="M68.69,10.7c.06.78-.6,0-.48-.1l.48.1Z"/>
          <path class="cls-25" d="M57.72,66.71c-.09-.09-.08.04-.29-.29.2,0,.3.1.29.29"/>
          <path class="cls-25" d="M28.38,46.62c-.16.02-.33-.01-.49,0,.04,0,.36-.26.49,0"/>
          <path class="cls-25" d="M19.35,50.21c-.15-.03-.15-.35,0-.39,0,.13,0,.26,0,.39"/>
          <path class="cls-25" d="M43.34,57.01c.03.2,0,.22-.19.19.1-.36.1-.12.19-.19"/>
          <path class="cls-25" d="M59.37,63.9c.12.06.24-.03.29.29-.17-.06-.34-.08-.29-.29"/>
          <path class="cls-25" d="M4.2,80.31c0-.13-.05-.32.1-.39-.02.12.06.32-.1.39"/>
          <path class="cls-25" d="M68.3,67.01l-.29-.1c.15.03.28.09.29.1"/>
          <path class="cls-25" d="M67.62,66.91l-.29-.1c.13.03.28.09.29.1"/>
          <path class="cls-25" d="M45.96,55.36c-.11.04-.13.06-.29.1l.29-.1Z"/>
          <path class="cls-25" d="M30.71,46.33c-.05.13-.19.09-.29.1.05-.13.18-.09.29-.1"/>
          <path class="cls-25" d="M57.23,68.46l-.19.1c.09-.07.19-.09.19-.1"/>
          <path class="cls-22" d="M47.38,50.12l-.05-.11s.04.07.05.11"/>
          <path class="cls-25" d="M29.26,46.52s-.06,0-.1,0l.05-.1.05.1Z"/>
          <path class="cls-25" d="M142.12,67.12v.08s0-.06,0-.08"/>
          <path class="cls-25" d="M53.35,67.3s.07-.06.1-.1l-.1.1Z"/>
          <path class="cls-6" d="M93.85,25.26c-.02.06-.08.08-.09.09l.09-.09Z"/>
          <path class="cls-6" d="M92.05,20.84l-.05-.05s.03.03.05.05"/>
          <path class="cls-6" d="M92.1,20.89s-.03-.03-.05-.05l.05.05Z"/>
          <path class="cls-25" d="M29.65,46.52s-.06,0-.1,0l.05-.1.05.1Z"/>
          <path class="cls-19" d="M7.02,75.45s-.03.03-.05.05l.05-.05Z"/>
          <path class="cls-25" d="M69.66,77.3l.1-.1s-.05.09-.1.1"/>
          <path class="cls-25" d="M173.2,62.35l-.1.1c0-.07.08-.09.1-.1"/>
          <path class="cls-10" d="M89.17,51.99c-.41,1.03-.86,2.39-1.38,3.33-.21.39-.96,1.36-1.27,1.69-.69.7-.91.52-1.73.09-.06-.03-.08-.16-.2-.22-.42-.21-1.46-.38-1.32-.88.03-.1,1.18-1.32,1.34-1.48.47-.44,1.15-.84,1.64-1.27.85-.76,1.61-1.63,2.48-2.37.19-.25.6.12.69.3.16.34-.15.51-.26.8"/>
          <path class="cls-10" d="M64.42,67.1c-.05.24.12.21.28.24.18.04.62-.04.59.19-.16.08-.38.1-.55.13-.18.04-.38-.09-.32.21-.33.02-.75.02-1.07,0l-2.43-.97c-.57-.24-2.68-1.22-2.96-1.65-.07-.1-.05-.18-.05-.29.8.02.86-.36,1.66.04,1.74.87,2.8,1.71,4.85,2.09"/>
          <path class="cls-25" d="M64.42,67.88c-.06-.29.14-.17.32-.21.18-.04.4-.05.55-.13.03-.23-.41-.15-.59-.19-.16-.03-.34,0-.28-.24.6.11,1.2.1,1.8.19,1.05.16-.29.39-.71.46-.32.05-.77.1-1.09.12"/>
          <path class="cls-25" d="M60.92,66.91l2.43.97c-.92-.07-1.36-.33-2.16-.71-.14-.07-.32-.01-.27-.26"/>
          <path class="cls-25" d="M63.35,72.64c-.36.27-.31-.91-.19-1.07.47-.09.27,1.01.19,1.07"/>
          <path class="cls-25" d="M57.33,69.53c.12.23-.39,1.11-.58.97l-.09-.47.67-.5Z"/>
          <path class="cls-25" d="M49.95,71.18c.25.27-.69.19-.8.21-.48.1-1.03.81-1.33,1.19-.19.24-.73,1.21-.92,1.21-.54,0,.2-1.07.35-1.3.44-.63,1.41-1.65,2.24-1.5.05,0,.44.16.46.18"/>
          <path class="cls-25" d="M80.64,75.16c.22-.05.21.11.28.25.14.31.85,1.45.26,1.5-.51.04-.57-.76-.73-1.07h.39s-.16-.58-.19-.68"/>
          <path class="cls-25" d="M53.64,68.17c-.08-.36.48-.35.48-.15,0,.13-.35.18-.48.15"/>
          <path class="cls-25" d="M62.18,74.48c-.06.21.18.85-.19.78.06-.21-.18-.85.19-.78"/>
          <path class="cls-6" d="M93.92,57.52c-.17-.1-1.39-.38-1.33-.66.34-.36.91.15,1.26.2.34.05.57-.16,1,.06.66.34.42,1.69-.41,1.09-.2-.14-.41-.63-.51-.7"/>
          <path class="cls-19" d="M93.75,49.24s-.03.14.07.19c.2.11.51-.02.41.33-.32.15-.42.61-.77.54-.05-.05.05-.89.1-1.01.04-.1.15-.08.19-.05"/>
          <path class="cls-19" d="M93.85,56.23c0-.43.68-.2.39-.68.41-.36,1.02.98-.39.68"/>
        </g>
        <g class="cls-5">
          <rect class="cls-15" x="44.93" y="35.19" width="59.39" height="38.29" transform="translate(-11.22 20.39) rotate(-14.49)"/>
        </g>
        <g class="cls-17">
          <rect class="cls-31" x="37.66" y="-1.77" width="65.49" height="62.31" transform="translate(-4.65 43.09) rotate(-33)"/>
        </g>
        <g class="cls-3">
          <rect class="cls-27" x="68.8" y="34.57" width="43.45" height="44.58" transform="translate(-10.56 91.64) rotate(-51.12)"/>
        </g>
        <g class="cls-4">
          <rect class="cls-20" x="-20.66" y="-4" width="98.62" height="93.82" transform="translate(-22.71 38.05) rotate(-50.86)"/>
        </g>
        <g class="cls-18">
          <rect class="cls-28" x="114.29" y="38.83" width="32.06" height="32.35" transform="translate(-2.38 103.99) rotate(-43.14)"/>
        </g>
        <g>
          <path class="cls-8" d="M113.61,73.94c1.02,0,1.85.26,2.49.77.64.51.96,1.19.96,2.01,0,.57-.16,1.08-.47,1.54-.31.46-.74.82-1.27,1.09-.54.27-1.15.42-1.84.44l-.35,1.65c-.04.23-.02.41.06.54.08.14.22.21.4.21v.07c-.34.22-.71.33-1.08.33-.88,0-1.21-.53-1-1.6l.96-4.47c.04-.23.02-.41-.07-.55-.08-.14-.22-.21-.4-.21v-.07c.34-.22.71-.33,1.08-.33.88,0,1.21.53,1,1.6l-.47,2.17c.49-.15.88-.46,1.18-.93.3-.47.46-1,.46-1.62s-.17-1.12-.52-1.48c-.35-.37-.82-.55-1.42-.55-.46,0-.88.1-1.26.29-.39.2-.7.46-.93.79-.23.33-.35.68-.35,1.07,0,.29.08.52.24.7.16.18.37.27.62.27.1,0,.22-.02.35-.05,0,.36-.13.66-.4.9-.27.24-.6.36-1,.36-.42,0-.76-.14-1.01-.42-.25-.28-.38-.64-.38-1.1,0-.66.19-1.25.58-1.77.39-.52.92-.92,1.58-1.22.67-.3,1.43-.44,2.28-.44Z"/>
          <path class="cls-29" d="M118.74,82.27v.07c-.34.17-.66.26-.96.26-.34,0-.58-.09-.72-.28-.14-.19-.18-.46-.11-.83l.76-3.54c.06-.39-.03-.58-.29-.58v-.08c.33-.17.66-.26.96-.26.6,0,.89.29.85.86.33-.57.77-.86,1.32-.86.31,0,.56.09.74.26.19.17.28.41.28.69s-.09.51-.27.69c-.18.19-.4.28-.67.28-.28,0-.51-.12-.68-.35.11-.04.18-.1.22-.19.04-.09.03-.18-.01-.26-.04-.08-.13-.12-.25-.12-.25,0-.48.23-.68.68-.2.45-.41,1.2-.64,2.24l-.15.71c-.08.4.02.6.29.6Z"/>
          <path class="cls-9" d="M122.71,82.6c-.49,0-.84-.16-1.05-.48-.22-.32-.26-.76-.15-1.33l.6-2.83c.08-.4,0-.6-.28-.6l-.02-.08c.35-.17.68-.26.99-.26.34,0,.58.09.72.28.14.19.18.45.1.79l-.62,2.9c-.07.46.03.69.32.69.42,0,.79-.45,1.12-1.34.06-.12.14-.16.26-.14.11.02.16.11.15.24-.24.75-.52,1.29-.85,1.63-.33.34-.76.51-1.27.51ZM124.18,75.63c0,.25-.09.46-.26.63-.17.17-.38.26-.63.26s-.45-.09-.63-.26c-.17-.17-.26-.38-.26-.63s.09-.46.26-.63c.17-.17.38-.26.63-.26s.46.09.63.26c.17.17.26.38.26.63Z"/>
          <path class="cls-2" d="M126.2,78.86l-.6,2.8c-.08.4.02.6.29.6v.07c-.34.17-.66.26-.96.26-.34,0-.58-.09-.72-.28-.14-.19-.18-.46-.11-.83l.76-3.54c.06-.39-.03-.58-.29-.58v-.08c.33-.17.66-.26.96-.26.54,0,.82.23.85.7.42-.47.92-.7,1.49-.7.45,0,.78.15.99.45.21.3.27.7.17,1.2l-.5,2.33c-.07.46.03.69.32.69.42,0,.79-.45,1.12-1.34.06-.12.14-.16.26-.14.11.02.16.11.15.24-.24.75-.52,1.29-.85,1.63-.33.34-.76.51-1.27.51-.49,0-.84-.16-1.05-.48-.22-.32-.26-.76-.15-1.33l.45-2.12c.05-.25.05-.44-.03-.58-.07-.14-.19-.21-.36-.21-.39,0-.69.33-.9.98Z"/>
          <path class="cls-23" d="M130.2,77.55l.07-.24c.04-.14.13-.21.27-.21h.15s.13-.66.13-.66c.03-.13.11-.21.24-.23.77-.13,1.25-.35,1.42-.65h.07s-.33,1.54-.33,1.54h.62s-.06.24-.06.24c-.05.14-.14.21-.27.21h-.37s-.74,3.45-.74,3.45c-.07.46.03.69.32.69.42,0,.79-.45,1.12-1.34.06-.12.14-.16.26-.14.11.02.16.11.15.24-.24.75-.52,1.29-.85,1.63-.33.34-.76.51-1.27.51-.49,0-.84-.16-1.05-.48-.22-.32-.26-.76-.15-1.33l.68-3.23h-.38Z"/>
          <path class="cls-1" d="M133.91,82.6c-.49,0-.84-.16-1.05-.48-.22-.32-.26-.76-.15-1.33l.6-2.83c.08-.4,0-.6-.28-.6l-.02-.08c.35-.17.68-.26.99-.26.34,0,.58.09.72.28.14.19.18.45.1.79l-.62,2.9c-.07.46.03.69.32.69.42,0,.79-.45,1.12-1.34.06-.12.14-.16.26-.14.11.02.16.11.15.24-.24.75-.52,1.29-.85,1.63-.33.34-.76.51-1.27.51ZM135.39,75.63c0,.25-.09.46-.26.63-.17.17-.38.26-.63.26s-.45-.09-.63-.26c-.17-.17-.26-.38-.26-.63s.09-.46.26-.63c.17-.17.38-.26.63-.26s.46.09.63.26c.17.17.26.38.26.63Z"/>
          <path class="cls-35" d="M137.41,78.86l-.6,2.8c-.08.4.02.6.29.6v.07c-.34.17-.66.26-.96.26-.34,0-.58-.09-.72-.28-.14-.19-.18-.46-.11-.83l.76-3.54c.06-.39-.03-.58-.29-.58v-.08c.33-.17.66-.26.96-.26.54,0,.82.23.85.7.42-.47.92-.7,1.49-.7.45,0,.78.15.99.45.21.3.27.7.17,1.2l-.5,2.33c-.07.46.03.69.32.69.42,0,.79-.45,1.12-1.34.06-.12.14-.16.26-.14.11.02.16.11.15.24-.24.75-.52,1.29-.85,1.63-.33.34-.76.51-1.27.51-.49,0-.84-.16-1.05-.48-.22-.32-.26-.76-.15-1.33l.45-2.12c.05-.25.05-.44-.03-.58-.07-.14-.19-.21-.36-.21-.39,0-.69.33-.9.98Z"/>
          <path class="cls-26" d="M142.55,84.16c-.19-.05-.35-.03-.48.04-.13.08-.19.21-.19.38,0,.12.04.22.12.3.08.08.19.12.32.12.57,0,1-.65,1.31-1.96l.16-.8c-.27.23-.6.35-.98.35-.56,0-1.01-.21-1.33-.62-.33-.41-.49-.96-.49-1.64,0-.63.13-1.2.39-1.7.26-.5.61-.89,1.06-1.18.45-.29.96-.43,1.53-.43.36,0,.69.13.98.38.21-.25.51-.38.9-.38.17,0,.36.03.57.08l-1.21,5.65c-.19.89-.56,1.59-1.1,2.1-.54.51-1.18.76-1.92.76-.49,0-.89-.13-1.19-.38-.3-.25-.45-.59-.45-.99,0-.34.11-.62.33-.85.22-.23.5-.34.83-.34s.56.11.72.32c.16.22.19.48.1.79ZM144.12,77.66c-.25,0-.49.14-.71.41-.23.27-.41.62-.55,1.05-.14.43-.21.88-.21,1.36,0,.39.06.7.18.92.12.22.28.33.49.33.17,0,.33-.08.47-.24.14-.16.25-.37.31-.65l.49-2.26c.05-.28.03-.5-.05-.67-.08-.17-.22-.25-.41-.25Z"/>
          <path class="cls-38" d="M155.07,73.94c1.02,0,1.85.26,2.49.77.64.51.96,1.19.96,2.01,0,.57-.16,1.08-.47,1.54-.31.46-.74.82-1.27,1.09-.54.27-1.15.42-1.84.44l-.35,1.65c-.04.23-.02.41.06.54.08.14.22.21.4.21v.07c-.34.22-.71.33-1.08.33-.88,0-1.21-.53-1-1.6l.96-4.47c.04-.23.02-.41-.07-.55-.08-.14-.22-.21-.4-.21v-.07c.34-.22.71-.33,1.08-.33.88,0,1.21.53,1,1.6l-.47,2.17c.49-.15.88-.46,1.18-.93.3-.47.46-1,.46-1.62s-.17-1.12-.52-1.48c-.35-.37-.82-.55-1.42-.55-.46,0-.88.1-1.26.29-.39.2-.7.46-.93.79-.23.33-.35.68-.35,1.07,0,.29.08.52.24.7.16.18.37.27.62.27.1,0,.22-.02.35-.05,0,.36-.13.66-.4.9-.27.24-.6.36-1,.36-.42,0-.76-.14-1.01-.42-.25-.28-.38-.64-.38-1.1,0-.66.19-1.25.58-1.77.39-.52.92-.92,1.58-1.22.67-.3,1.43-.44,2.28-.44Z"/>
          <path class="cls-30" d="M160.2,82.27v.07c-.34.17-.66.26-.96.26-.34,0-.58-.09-.72-.28-.14-.19-.18-.46-.11-.83l.76-3.54c.06-.39-.03-.58-.29-.58v-.08c.33-.17.66-.26.96-.26.6,0,.89.29.85.86.33-.57.77-.86,1.32-.86.31,0,.56.09.74.26.19.17.28.41.28.69s-.09.51-.27.69c-.18.19-.4.28-.67.28-.28,0-.51-.12-.68-.35.11-.04.18-.1.22-.19.04-.09.03-.18-.01-.26-.04-.08-.13-.12-.25-.12-.25,0-.48.23-.68.68-.2.45-.41,1.2-.64,2.24l-.15.71c-.08.4.02.6.29.6Z"/>
          <path class="cls-24" d="M165.86,77.03c.44,0,.78.1,1.03.31.24.21.37.49.37.83,0,.54-.24,1.02-.73,1.43-.49.41-1.15.71-2,.9.02.44.13.77.34,1,.21.23.5.34.88.34s.74-.14,1.08-.41c.34-.27.64-.65.89-1.14.08-.11.17-.14.28-.09.11.05.14.14.11.27-.27.67-.67,1.19-1.19,1.57-.52.38-1.09.57-1.72.57-.7,0-1.26-.22-1.68-.65-.42-.44-.64-1.02-.64-1.75,0-.59.13-1.12.4-1.6.26-.48.62-.86,1.07-1.14.45-.28.96-.43,1.51-.43ZM164.54,80c.5-.21.91-.49,1.22-.85.31-.36.46-.75.46-1.16,0-.22-.1-.33-.3-.35-.32,0-.61.24-.88.71-.27.47-.43,1.02-.5,1.66Z"/>
          <path class="cls-33" d="M170.07,81.26c0-.21-.06-.41-.19-.58-.13-.18-.37-.4-.71-.67-.33-.25-.57-.5-.71-.74-.15-.24-.22-.51-.22-.81,0-.41.18-.75.54-1.03.36-.27.82-.41,1.38-.41.49,0,.88.11,1.19.32.31.21.46.48.46.82,0,.22-.07.4-.22.55-.15.15-.34.22-.56.22-.34,0-.56-.17-.66-.5.09-.02.17-.07.22-.14.05-.08.08-.16.08-.26,0-.12-.04-.22-.13-.3-.08-.08-.19-.11-.32-.11-.16,0-.29.05-.4.14-.11.1-.16.21-.16.36s.06.28.17.42c.12.13.32.31.63.53.42.31.73.61.92.89.19.28.28.6.28.95,0,.49-.21.9-.62,1.22-.42.32-.94.48-1.57.48-.58,0-1.06-.14-1.44-.41-.37-.27-.56-.63-.56-1.06,0-.19.03-.37.1-.54.07-.17.17-.31.32-.41.14-.1.33-.15.56-.15.29,0,.53.11.72.32.18.21.23.45.14.71-.18-.05-.34-.03-.47.06-.13.09-.19.21-.19.37,0,.15.06.27.18.36.12.1.28.14.47.14.23,0,.41-.07.57-.2.15-.13.23-.31.23-.52Z"/>
          <path class="cls-16" d="M174.57,81.26c0-.21-.06-.41-.19-.58-.13-.18-.37-.4-.71-.67-.33-.25-.57-.5-.71-.74-.15-.24-.22-.51-.22-.81,0-.41.18-.75.54-1.03.36-.27.82-.41,1.38-.41.49,0,.88.11,1.19.32.31.21.46.48.46.82,0,.22-.07.4-.22.55-.15.15-.34.22-.56.22-.34,0-.56-.17-.66-.5.09-.02.17-.07.22-.14.05-.08.08-.16.08-.26,0-.12-.04-.22-.13-.3-.08-.08-.19-.11-.32-.11-.16,0-.29.05-.4.14-.11.1-.16.21-.16.36s.06.28.17.42c.12.13.32.31.63.53.42.31.73.61.92.89.19.28.28.6.28.95,0,.49-.21.9-.62,1.22-.42.32-.94.48-1.57.48-.58,0-1.06-.14-1.44-.41-.37-.27-.56-.63-.56-1.06,0-.19.03-.37.1-.54.07-.17.17-.31.32-.41.14-.1.33-.15.56-.15.29,0,.53.11.72.32.18.21.23.45.14.71-.18-.05-.34-.03-.47.06-.13.09-.19.21-.19.37,0,.15.06.27.18.36.12.1.28.14.47.14.23,0,.41-.07.57-.2.15-.13.23-.31.23-.52Z"/>
        </g>
      </g>
      <g>
        <path class="cls-6" d="M1.8,94.28h.12c.33,0,.64-.12.95-.35.3-.27.45-.53.45-.75h.02v.04c.19.46.51.68.95.68h.1c.06,0,.13,0,.2-.02.59-.18.89-.49.89-.93v-.09c0-.08-.01-.15-.04-.19-.19-.43-.5-.65-.93-.65h-.1c-.17,0-.34.04-.51.12-.38.22-.57.45-.57.68h-.02c0-.06-.01-.12-.04-.19-.26-.54-.67-.81-1.24-.81h-.12c-.1,0-.25.02-.45.07-.65.28-.97.67-.97,1.16v.07c0,.06,0,.15.02.25.24.61.67.91,1.28.91Z"/>
        <path class="cls-6" d="M17.57,98.94c-.07,0-.13,0-.18.02-.46.19-.75.31-.89.35-.42.1-.64.15-.65.18-.15,0-.33.01-.57.04,0-.01,0-.02-.02-.02s-.03,0-.06.02l-.1-.02-.04.02c-.44-.04-.74-.08-.91-.12-.9-.26-1.36-.69-1.36-1.3,0-.07,0-.16.02-.28.22-.69.71-1.03,1.48-1.03.03,0,.09,0,.16.02.42.11.63.22.63.35-.12.27-.18.49-.18.67v.04c0,.06.01.13.04.21.22.44.55.67.99.67.11,0,.23-.01.36-.04.66-.21.99-.68.99-1.4v-.14c0-.44-.24-.89-.71-1.37-.43-.36-.8-.6-1.13-.7-.3-.12-.82-.2-1.56-.26-.27.02-.49.05-.67.09-.6.08-1.21.34-1.82.79-.59.62-.9,1.12-.91,1.52.01,0,.02,0,.02.02-.01,0-.02,0-.02.02v.12c0,.77.22,1.39.65,1.86.36.35.78.66,1.26.91v.02c-.56.38-.98.61-1.26.68-.19.02-.34.04-.43.05-.12,0-.27-.01-.46-.02-.98,0-1.62-.17-1.92-.51-.16,0-.34-.93-.53-2.8-.15-.65-.37-1.18-.67-1.58-.88-1.13-1.98-1.7-3.28-1.7-.75,0-1.37.12-1.88.37-1.31.66-1.96,1.68-1.96,3.05.01.3.04.56.08.77.25,1.01.65,1.76,1.22,2.24.86.71,1.76,1.07,2.69,1.07h.14c.25,0,.51-.04.79-.12.97-.33,1.46-.91,1.46-1.73-.1-.85-.46-1.28-1.05-1.28h-.06c-.5.07-.75.27-.75.61.03.11.04.18.04.19v.02c-.23.26-.49.39-.77.39h-.14c-.07,0-.15-.01-.24-.04-.7-.27-1.05-.81-1.05-1.61,0-.2.03-.43.1-.7.3-.75.89-1.12,1.76-1.12.39,0,.72.13.97.39.37.32.83,1.41,1.36,3.26.24.75.66,1.32,1.26,1.7.72.39,1.29.58,1.72.58h1.44s.04-.01.04-.04h0c.29-.04.62-.12.98-.26.47-.22,1.02-.68,1.66-1.38.07,0,.35.03.83.09.02-.01.05-.02.08-.02h.24l.1.02c.84-.11,1.46-.26,1.86-.46.8-.38,1.19-.71,1.19-.98-.05-.23-.18-.35-.38-.35Z"/>
        <path class="cls-6" d="M23.49,102.4h-.04c-.07,0-.13,0-.18.02-.51.14-.77.4-.77.77v.18c.16.47.48.7.95.7h.04c.07,0,.13,0,.18-.02.51-.14.77-.4.77-.77v-.18c-.16-.47-.48-.7-.95-.7Z"/>
        <path class="cls-6" d="M44.3,93.35c-.4-.64-.83-.96-1.3-.96h-.14c-.1,0-.22.02-.34.07-.51.22-.77.63-.77,1.23s.18,1.29.55,2.07c.41,1.26.61,2.35.61,3.29,0,.37-.07.73-.2,1.09-.16.51-.69.77-1.58.77h-.04c-.33,0-.57-.12-.71-.35-.1,0-.18-.34-.24-1.03.15-.62.22-1.32.22-2.1v-.02c0-.91-.09-1.84-.28-2.8-.11-.49-.25-.91-.43-1.24-.4-.64-.83-.96-1.3-.96h-.14c-.1,0-.22.02-.34.07-.51.22-.77.63-.77,1.23s.18,1.29.55,2.07c.41,1.26.61,2.35.61,3.29,0,.37-.07.73-.2,1.09-.14.46-.58.71-1.32.76h-.2c-.43,0-.71-.08-.83-.23v-.02c.55-.69.83-1.42.83-2.17,0-.64-.22-1.22-.67-1.75-.89-.95-2.04-1.42-3.42-1.42-1.18,0-2.31.39-3.38,1.17v-.16c0-.93-.27-1.87-.81-2.84-.91-1.35-1.86-2.03-2.86-2.03-.14,0-.31.04-.51.11-.43.24-.65.6-.65,1.1,0,.37.16.7.49,1.02.95.76,1.46,1.18,1.54,1.26.72.61,1.07,1.42,1.07,2.42,0,.32-.03.64-.08.98-.61.97-.96,1.81-1.03,2.54v.02h-.73s-.02,0-.03.01h-.23c-.42,0-.7-.06-.85-.19.19-.53.28-1,.28-1.44-.01-.16-.02-.29-.02-.4-.14-.88-.53-1.31-1.17-1.31-.11,0-.23.02-.34.05-.47.13-.71.46-.71.98,0,.26.07.51.2.75.15.15.22.32.22.51,0,.5-.26.82-.79.98-.16.02-.28.03-.37.05-.31-.03-.59-.08-.84-.18-.55-.31-.83-1.03-.83-2.17v-.19c0-.67.09-1.45.28-2.35.3-.81.45-1.46.45-1.94v-.16c0-.19-.03-.38-.08-.58-.25-.61-.66-.91-1.24-.91-.48,0-.9.31-1.26.93-.3.73-.45,1.7-.45,2.91,0,.93.1,1.86.3,2.8.36,1.29.83,2.15,1.4,2.58.62.47,1.22.7,1.78.7h.3s.01,0,.02,0h.02s.06,0,.11,0h.37l.04-.02s0-.01,0-.02c.11-.01.22-.03.36-.04.43-.08.83-.25,1.22-.53,0,.03.05.11.16.25.36.25.68.37.93.37h1.17s.03,0,.03-.01l.22-.02c.03.19.07.37.12.53.18.46.51.68.97.68h.08c.06,0,.13,0,.2-.02.57-.17.85-.47.85-.89v-.19l-.02-.04c.81.14,1.57.21,2.27.21,1.68,0,3.06-.36,4.13-1.09.04.12.21.31.51.56.34.18.6.26.79.26h.42s.85,0,.85,0c.72,0,1.4-.34,2.05-1.03h.02c.03.15.18.37.47.67.36.25.68.37.93.37h1.19c.72,0,1.4-.34,2.05-1.03.65-.93.97-2.22.97-3.87v-.02c0-.91-.09-1.84-.28-2.8-.11-.49-.25-.91-.43-1.24ZM34.34,99.42c-.83,1.1-2.49,1.65-4.98,1.65h-.63l-.24-.02c0-.14.05-.35.14-.63,0-.21.22-.64.65-1.3.32-.42.75-.8,1.3-1.14.89-.44,1.61-.67,2.17-.67h.24c.07,0,.17,0,.3.02.85.21,1.28.65,1.28,1.33,0,.23-.07.48-.22.75Z"/>
        <path class="cls-6" d="M49.72,94.28h.12c.33,0,.64-.12.95-.35.3-.27.45-.53.45-.75h.02v.04c.19.46.51.68.95.68h.1c.06,0,.13,0,.2-.02.59-.18.89-.49.89-.93v-.09c0-.08-.01-.15-.04-.19-.19-.43-.5-.65-.93-.65h-.1c-.17,0-.34.04-.51.12-.38.22-.57.45-.57.68h-.02c0-.06-.01-.12-.04-.19-.26-.54-.67-.81-1.24-.81h-.12c-.1,0-.25.02-.45.07-.65.28-.97.67-.97,1.16v.07c0,.06,0,.15.02.25.24.61.67.91,1.28.91Z"/>
        <path class="cls-6" d="M61.48,102.55h-.14c-.16,0-.33.04-.52.12-.41.26-.61.5-.61.73-.22-.19-.45-.28-.68-.28h-.21c-.52.15-.78.41-.78.8v.18c.17.45.47.67.9.67h.1c.37,0,.65-.18.85-.55.3.31.62.47.97.47h.14c.11,0,.19-.01.26-.04.6-.19.9-.53.9-1v-.06c0-.06,0-.13-.03-.2-.22-.56-.6-.84-1.13-.84Z"/>
        <path class="cls-6" d="M65.69,93.35c-.4-.64-.83-.96-1.3-.96h-.14c-.1,0-.22.02-.34.07-.51.22-.77.63-.77,1.23s.18,1.29.55,2.07c.41,1.26.61,2.35.61,3.29,0,.37-.07.73-.2,1.09-.16.51-.69.77-1.58.77,0,0-.02,0-.03,0h-.14c-.42,0-.7-.06-.85-.19.19-.53.28-1,.28-1.44-.01-.16-.02-.29-.02-.4-.14-.88-.53-1.31-1.17-1.31-.11,0-.23.02-.34.05-.47.13-.71.46-.71.98,0,.26.07.51.2.75.15.15.22.32.22.51,0,.5-.26.82-.79.98-.23.03-.39.05-.48.07-.12,0-.3-.02-.52-.02-.98,0-1.62-.17-1.92-.51-.16,0-.34-.93-.53-2.8-.15-.65-.37-1.18-.67-1.58-.88-1.13-1.98-1.7-3.28-1.7-.75,0-1.37.12-1.88.37-1.31.66-1.96,1.68-1.96,3.05.01.3.04.56.08.77.25,1.01.65,1.76,1.22,2.24.86.71,1.76,1.07,2.69,1.07h.14c.25,0,.51-.04.79-.12.97-.33,1.46-.91,1.46-1.73-.1-.85-.46-1.28-1.05-1.28h-.06c-.5.07-.75.27-.75.61.03.11.04.18.04.19v.02c-.23.26-.49.39-.77.39h-.14c-.07,0-.15-.01-.24-.04-.7-.27-1.05-.81-1.05-1.61,0-.2.03-.43.1-.7.3-.75.89-1.12,1.76-1.12.39,0,.72.13.97.39.37.32.83,1.41,1.36,3.26.24.75.66,1.32,1.26,1.7.72.39,1.29.58,1.72.58h1.18s.01,0,.02,0h.02s.06,0,.11,0h.11s.03,0,.03-.01c.15-.01.36-.04.62-.07.43-.08.83-.25,1.22-.53,0,.03.05.11.16.25.36.25.68.37.93.37h1.17s.02,0,.02,0h.35c.72,0,1.4-.34,2.05-1.03.65-.93.97-2.22.97-3.87v-.02c0-.91-.09-1.84-.28-2.8-.11-.49-.25-.91-.43-1.24Z"/>
        <path class="cls-6" d="M72.82,96.5c.01.07.03.15.05.23.23.39.57.58,1.04.58h.07s.1,0,.18-.01c.47-.15.71-.39.71-.74v-.04c0-.09-.03-.18-.08-.27-.24-.34-.57-.51-.97-.51-.11,0-.21.01-.31.04-.45.14-.67.38-.67.72Z"/>
        <path class="cls-6" d="M71.75,97.56h.08c.07,0,.14,0,.2-.02.51-.11.76-.39.76-.85-.01-.14-.03-.25-.07-.32-.2-.48-.55-.73-1.05-.73,0,0-.06.01-.18.01-.58.16-.87.46-.87.91v.04c0,.06.02.15.05.27.25.46.61.68,1.08.68Z"/>
        <path class="cls-6" d="M72.68,95.74h.2c.57-.16.86-.44.86-.85v-.09c-.15-.44-.44-.65-.89-.65h-.28c-.48.17-.72.42-.72.77v.06l.02.17c.18.4.45.6.82.6Z"/>
        <path class="cls-6" d="M85.54,93.35c-.4-.64-.83-.96-1.3-.96h-.14c-.1,0-.22.02-.34.07-.51.22-.77.63-.77,1.23s.18,1.29.55,2.07c.41,1.26.61,2.35.61,3.29,0,.37-.07.73-.2,1.09-.15.5-.65.75-1.5.77-.45-.01-.72-.11-.81-.28.07-.28.1-.57.1-.86,0-1-.33-1.89-.99-2.65-.62-.62-1.27-.93-1.94-.93-.5,0-.95.13-1.36.4-.86.68-1.3,1.59-1.3,2.75v.75l.02.12c-.01.06-.03.09-.04.09,0,.19-.18.37-.55.53-.18.03-.31.06-.38.07h-.45c-.42,0-.7-.06-.85-.19.19-.53.28-1,.28-1.44-.01-.16-.02-.29-.02-.4-.14-.88-.53-1.31-1.17-1.31-.11,0-.23.02-.34.05-.47.13-.71.46-.71.98,0,.26.07.51.2.75.15.15.22.32.22.51,0,.5-.26.82-.79.98-.16.02-.28.03-.37.05-.31-.03-.59-.08-.83-.18-.55-.31-.83-1.03-.83-2.17v-.19c0-.67.09-1.45.28-2.35.3-.81.45-1.46.45-1.94v-.16c0-.19-.03-.38-.08-.58-.25-.61-.66-.91-1.24-.91-.48,0-.9.31-1.26.93-.3.73-.45,1.7-.45,2.91,0,.93.1,1.86.3,2.8.36,1.29.83,2.15,1.4,2.58.62.47,1.22.7,1.78.7h.29s.01,0,.02,0h.02s.06,0,.11,0h.38l.04-.02s0-.02,0-.02c.1-.01.22-.03.35-.04.43-.08.83-.25,1.22-.53,0,.03.05.11.16.25.36.25.68.37.93.37h1.17s.02,0,.03,0c.85-.02,1.42-.15,1.71-.4.48.56,1.07.84,1.78.84h.06c.75,0,1.42-.3,2.03-.89.15.12.22.18.22.19.34.18.6.26.79.26h1.19c.72,0,1.4-.34,2.05-1.03.65-.93.97-2.22.97-3.87v-.02c0-.91-.09-1.84-.28-2.8-.11-.49-.25-.91-.43-1.24ZM79.11,101.09c-.06,0-.16-.03-.28-.09-.42-.44-.63-1.02-.63-1.73.05-.81.24-1.21.57-1.21.06,0,.16.03.28.09.42.44.63,1.02.63,1.73-.05.81-.24,1.21-.57,1.21Z"/>
        <path class="cls-6" d="M90.28,93.68c0-.1-.03-.22-.08-.37-.26-.6-.65-.89-1.15-.89-.18,0-.42.08-.71.23-.65.44-.97,1.53-.97,3.28v.42c0,1.59.29,3.2.87,4.84.42.76.81,1.14,1.17,1.14.03,0,.06,0,.08-.02.32-.08.49-.32.49-.74,0-.12-.04-.36-.12-.74-.26-1-.38-1.9-.38-2.68,0-.47.05-.97.16-1.49.39-1.72.61-2.72.65-2.98Z"/>
        <path class="cls-6" d="M99.73,98.08h-.07c-.1,0-.19,0-.26.02-.73.2-1.1.58-1.1,1.12v.25c.24.67.69,1.01,1.36,1.01h.07c.1,0,.19,0,.26-.02.74-.2,1.11-.58,1.11-1.11v-.25c-.23-.67-.69-1.01-1.37-1.01Z"/>
        <path class="cls-6" d="M104.55,97.73h-.08c-.24,0-.39.15-.47.46.05.22.08.35.08.39,0,.43-.1.79-.3,1.1-.14.3-.48.67-1.01,1.12-.97.63-2.06.95-3.26.95-.89,0-1.8-.3-2.71-.91-.86-.7-1.3-1.45-1.3-2.24,0-.64.28-1.21.83-1.73.53-.4,1.08-.6,1.66-.6.34,0,.69.12,1.05.37.26.23.54.35.85.35h.04c.09,0,.18-.01.28-.04.62-.19.93-.51.93-.95v-.12c0-.2-.09-.43-.26-.68-.64-.63-1.58-.95-2.79-.95-.42,0-.92.07-1.52.19-.62.13-1.29.46-2.03,1.02-.99.92-1.48,1.92-1.48,3v.3c0,.25.07.61.2,1.07.53,1.39,1.42,2.45,2.69,3.17.88.54,1.94.81,3.18.81,1.94,0,3.51-.53,4.7-1.58,1.04-1.04,1.56-2.1,1.56-3.19,0-.06-.01-.22-.04-.49-.18-.54-.45-.81-.81-.81Z"/>
        <path class="cls-6" d="M109.33,93.68c0-.1-.03-.22-.08-.37-.26-.6-.65-.89-1.15-.89-.18,0-.42.08-.71.23-.65.44-.97,1.53-.97,3.28v.42c0,1.59.29,3.2.87,4.84.42.76.81,1.14,1.17,1.14.03,0,.06,0,.08-.02.32-.08.49-.32.49-.74,0-.12-.04-.36-.12-.74-.26-1-.38-1.9-.38-2.68,0-.47.05-.97.16-1.49.39-1.72.61-2.72.65-2.98Z"/>
        <path class="cls-6" d="M120.77,93.35c-.4-.64-.83-.96-1.3-.96h-.14c-.1,0-.22.02-.34.07-.51.22-.77.63-.77,1.23s.18,1.29.55,2.07c.41,1.26.61,2.35.61,3.29,0,.37-.07.73-.2,1.09-.16.51-.69.77-1.58.77,0,0-.02,0-.03,0h-.05c-.58-.03-.87-.14-.87-.33h-.02s-.04.02-.04.07h-.02v-.02s0-.08.02-.14c0-.78-.19-1.47-.57-2.07-.7-.95-1.65-1.42-2.86-1.42-.72,0-1.42.2-2.11.6-.7.54-1.05,1.23-1.05,2.09,0,.48.11.93.32,1.33.39.9,1.24,1.35,2.55,1.35.8,0,1.4-.21,1.82-.63-.04.26-.11.52-.22.79-.63,1.24-1.59,1.86-2.9,1.86h-.04c-.27,0-.52-.05-.75-.16-.36-.22-.55-.44-.55-.68l.02-.09c-.05-.23-.17-.35-.36-.35h-.04c-.17,0-.29.11-.38.32v.28c.11.26.21.46.3.61.46.62,1.11.93,1.94.93h.12c.3,0,.45-.01.45-.04.59,0,1.28-.24,2.05-.72.76-.5,1.25-.97,1.48-1.4.22-.38.37-.72.47-1.02.34.18.6.26.79.26h1.17s.02,0,.02,0h.2c.72,0,1.4-.34,2.05-1.03.65-.93.97-2.22.97-3.87v-.02c0-.91-.09-1.84-.28-2.8-.11-.49-.25-.91-.43-1.24ZM114.59,99.29c-.15.09-.26.19-.34.3-.05.17-.11.41-.16.72-.19.41-.52.61-.97.61-.29-.04-.48-.07-.59-.11-.45-.3-.67-.69-.67-1.17l.04-.23c.14-.64.57-.96,1.28-.96h.06c.56,0,1.01.27,1.36.82v.02Z"/>
        <path class="cls-6" d="M124.15,94.61c.58-.11.87-.24.87-.4v-.07s-.06-.06-.14-.09c-.29.09-.51.14-.64.14-.52,0-.85-.16-.99-.49,0-.35.18-.53.55-.53.14,0,.24.05.3.16-.07.11-.1.2-.1.26,0,.19.14.31.41.35.27,0,.43-.17.5-.51v-.11c0-.2-.13-.41-.38-.63-.19-.13-.44-.22-.74-.26h-.04l-.1.02s0-.02-.02-.02c-.18,0-.38.05-.6.14-.41.24-.61.48-.61.73v.19c0,.26.19.53.57.82-.31.26-.47.44-.47.56v.12c.04.21.15.32.32.32h.04c.07,0,.16-.03.28-.09.32-.43.65-.65.97-.65l.04.02Z"/>
        <path class="cls-6" d="M130.42,93.15c-.44-.47-.85-.7-1.24-.7l-.32.02c-.72.18-1.07.57-1.07,1.17v.07c0,.53.26,1.26.79,2.17.43,1.1.65,2.18.65,3.26v.16c0,.95-.29,1.57-.87,1.87h-.02v-.04c0-.99-.27-2.05-.81-3.19-1.06-1.99-2.04-2.98-2.96-2.98h-.14c-.13,0-.27.04-.41.11-.38.22-.57.5-.57.84v.04c0,.12.02.25.06.37,0,.16.45.57,1.36,1.24.76.63,1.26,1.17,1.5,1.61.47.87.71,1.67.71,2.4-.46,0-.87-.12-1.24-.35-.49-.39-.73-.86-.73-1.4v-.04l-.02-.04h.02c0-.18-.09-.29-.26-.32h-.08c-.19,0-.31.27-.34.81,0,.54.25,1.07.75,1.59.53.63,1.38.95,2.55.95h.16c1.07,0,1.95-.46,2.63-1.37.63-1.08.95-2.35.95-3.82,0-1.09-.16-2.18-.49-3.28,0-.21-.19-.6-.57-1.17Z"/>
        <path class="cls-6" d="M135.27,93.68c0-.1-.03-.22-.08-.37-.26-.6-.65-.89-1.15-.89-.18,0-.42.08-.71.23-.65.44-.97,1.53-.97,3.28v.42c0,1.59.29,3.2.87,4.84.42.76.81,1.14,1.17,1.14.03,0,.06,0,.08-.02.32-.08.49-.32.49-.74,0-.12-.04-.36-.12-.74-.26-1-.38-1.9-.38-2.68,0-.47.05-.97.16-1.49.39-1.72.61-2.72.65-2.98Z"/>
        <path class="cls-6" d="M139.84,94.28h.12c.33,0,.64-.12.95-.35.3-.27.45-.53.45-.75h.02v.04c.19.46.51.68.95.68h.1c.06,0,.13,0,.2-.02.59-.18.89-.49.89-.93v-.09c0-.08-.01-.15-.04-.19-.19-.43-.5-.65-.93-.65h-.1c-.17,0-.34.04-.51.12-.38.22-.57.45-.57.68h-.02c0-.06-.01-.12-.04-.19-.26-.54-.67-.81-1.24-.81h-.12c-.1,0-.25.02-.45.07-.65.28-.97.67-.97,1.16v.07c0,.06,0,.15.02.25.24.61.67.91,1.28.91Z"/>
        <path class="cls-6" d="M157.44,102.4h-.04c-.07,0-.13,0-.18.02-.51.14-.77.4-.77.77v.18c.16.47.48.7.95.7h.04c.07,0,.13,0,.18-.02.51-.14.77-.4.77-.77v-.18c-.16-.47-.48-.7-.95-.7Z"/>
        <path class="cls-6" d="M176.25,97.12c-.62-.62-1.27-.93-1.94-.93-.5,0-.95.13-1.36.4-.86.68-1.3,1.59-1.3,2.75v.75l.02.12c-.01.06-.03.09-.04.09,0,.19-.18.37-.55.53-.14.02-.25.04-.32.06h-.28c-.43,0-.71-.08-.83-.23v-.02c.55-.69.83-1.42.83-2.17,0-.64-.22-1.22-.67-1.75-.89-.95-2.04-1.42-3.42-1.42-1.18,0-2.31.39-3.38,1.17v-.16c0-.93-.27-1.87-.81-2.84-.91-1.35-1.86-2.03-2.86-2.03-.14,0-.31.04-.51.11-.43.24-.65.6-.65,1.1,0,.37.16.7.49,1.02.95.76,1.46,1.18,1.54,1.26.72.61,1.07,1.42,1.07,2.42,0,.32-.03.64-.08.98-.61.97-.96,1.81-1.03,2.54v.02h-.73s-.02,0-.03.01h-.23c-.42,0-.7-.06-.85-.19.19-.53.28-1,.28-1.44-.01-.16-.02-.29-.02-.4-.14-.88-.53-1.31-1.17-1.31-.11,0-.23.02-.34.05-.47.13-.71.46-.71.98,0,.26.07.51.2.75.15.15.22.32.22.51,0,.5-.26.82-.79.98-.21.02-.37.05-.46.07h-2.18c-.4,0-.67-.06-.81-.18l.1-.02h.24l.1.02c.84-.11,1.46-.26,1.86-.46.8-.38,1.19-.71,1.19-.98-.05-.23-.18-.35-.38-.35-.07,0-.13,0-.18.02-.46.19-.75.31-.89.35-.42.1-.64.15-.65.18-.15,0-.33.01-.57.04,0-.01,0-.02-.02-.02s-.03,0-.06.02l-.1-.02-.04.02c-.44-.04-.74-.08-.91-.12-.9-.26-1.36-.69-1.36-1.3,0-.07,0-.16.02-.28.22-.69.71-1.03,1.48-1.03.03,0,.09,0,.16.02.42.11.63.22.63.35-.12.27-.18.49-.18.67v.04c0,.06.01.13.04.21.22.44.55.67.99.67.11,0,.23-.01.36-.04.66-.21.99-.68.99-1.4v-.14c0-.44-.24-.89-.71-1.37-.43-.36-.8-.6-1.13-.7-.3-.12-.82-.2-1.56-.26-.27.02-.49.05-.67.09-.6.08-1.21.34-1.82.79-.59.62-.9,1.12-.91,1.52.01,0,.02,0,.02.02-.01,0-.02,0-.02.02v.12c0,.77.22,1.39.65,1.86.36.35.78.66,1.26.91v.02c-.56.38-.98.61-1.26.68-.21.02-.36.04-.45.06-.12,0-.29-.02-.5-.02-.98,0-1.62-.17-1.92-.51-.16,0-.34-.93-.53-2.8-.15-.65-.37-1.18-.67-1.58-.88-1.13-1.98-1.7-3.28-1.7-.75,0-1.37.12-1.88.37-1.31.66-1.96,1.68-1.96,3.05.01.3.04.56.08.77.25,1.01.65,1.76,1.22,2.24.86.71,1.76,1.07,2.69,1.07h.14c.25,0,.51-.04.79-.12.97-.33,1.46-.91,1.46-1.73-.1-.85-.46-1.28-1.05-1.28h-.06c-.5.07-.75.27-.75.61.03.11.04.18.04.19v.02c-.23.26-.49.39-.77.39h-.14c-.07,0-.15-.01-.24-.04-.7-.27-1.05-.81-1.05-1.61,0-.2.03-.43.1-.7.3-.75.89-1.12,1.76-1.12.39,0,.72.13.97.39.37.32.83,1.41,1.36,3.26.24.75.66,1.32,1.26,1.7.72.39,1.29.58,1.72.58h1.44s.04,0,.04-.03c.79-.06,1.54-.45,2.24-1.16h.02c.11.27.3.52.57.75.37.29.71.44,1.01.44h2.58s.01,0,.02,0h.02s.06,0,.11,0h.05s.02,0,.02,0c.16-.01.39-.04.69-.08.43-.08.83-.25,1.22-.53,0,.03.05.11.16.25.36.25.68.37.93.37h1.17s.03,0,.03-.01l.22-.02c.03.19.07.37.12.53.18.46.51.68.97.68h.08c.06,0,.13,0,.2-.02.57-.17.85-.47.85-.89v-.19l-.02-.04c.81.14,1.57.21,2.27.21,1.68,0,3.06-.36,4.13-1.09.04.12.21.31.51.56.34.18.6.26.79.26h.63s.02,0,.03,0h.02c.14,0,.28,0,.41,0h.08s.02,0,.02,0c.71-.04,1.19-.17,1.45-.39.48.56,1.07.84,1.78.84h.06c.21,0,.48-.04.81-.12,1.28-.48,1.92-1.44,1.92-2.87,0-1-.33-1.89-.99-2.65ZM168.29,99.42c-.83,1.1-2.49,1.65-4.98,1.65h-.63l-.24-.02c0-.14.05-.35.14-.63,0-.21.22-.64.65-1.3.32-.42.75-.8,1.3-1.14.89-.44,1.61-.67,2.17-.67h.24c.07,0,.17,0,.3.02.85.21,1.28.65,1.28,1.33,0,.23-.07.48-.22.75ZM174.6,101.09c-.06,0-.16-.03-.28-.09-.42-.44-.63-1.02-.63-1.73.05-.81.24-1.21.57-1.21.06,0,.16.03.28.09.42.44.63,1.02.63,1.73-.05.81-.24,1.21-.57,1.21Z"/>
      </g>
    </g>
  </g>
</svg>